<svg width="189" height="210" viewBox="0 0 189 210" fill="none" xmlns="http://www.w3.org/2000/svg">
<path d="M130 194.766V145.98C141.282 124.483 153.254 101.089 163.367 79.9806C170.788 64.4917 177.216 50.2165 181.639 38.8167C183.85 33.1182 185.567 28.119 186.655 24.0353C187.732 19.9967 188.235 16.7104 187.894 14.5125C187.252 10.3719 185.595 7.36826 183.368 5.25935C181.152 3.16006 178.431 2.00429 175.741 1.44429C173.053 0.884769 170.36 0.911621 168.139 1.20632C165.959 1.4955 164.094 2.06179 163.13 2.68832C162.969 2.7932 162.699 3.02005 162.614 3.41934C162.525 3.83097 162.689 4.15592 162.809 4.3255C163.013 4.61511 163.336 4.80565 163.526 4.91237C163.981 5.1677 164.69 5.46604 165.481 5.79605C165.558 5.82821 165.636 5.8609 165.716 5.89413C167.328 6.56547 169.467 7.45661 171.608 8.66418C176.169 11.2367 180.294 14.985 179.704 20.612C179.635 21.2664 179.357 22.2881 178.84 23.6843C178.331 25.0617 177.615 26.7401 176.713 28.684C174.91 32.5706 172.387 37.472 169.356 43.0656C163.296 54.2503 155.226 68.1565 146.872 82.1588C138.359 96.4255 129.558 110.779 122.295 122.44C129.896 105.109 137.41 86.5857 143.817 70.1241C149.151 56.4201 153.721 44.1353 156.939 35.1426C158.548 30.647 159.82 26.9696 160.682 24.3469C161.112 23.0369 161.443 21.9816 161.662 21.2157C161.772 20.8343 161.857 20.5123 161.913 20.2608C161.941 20.136 161.964 20.0148 161.98 19.9052C161.991 19.8252 162.014 19.6485 161.987 19.4625C161.889 18.7976 161.542 17.778 161.025 16.6384C160.498 15.4747 159.759 14.1125 158.827 12.7503C156.981 10.0532 154.283 7.22321 150.839 6.07377C150.763 6.04824 150.602 5.99856 150.409 6.00003C150.219 6.00149 149.698 6.07327 149.456 6.61486C149.279 7.00945 149.41 7.36111 149.436 7.43354L149.437 7.43577C149.483 7.56029 149.544 7.66421 149.586 7.73032C149.743 7.97912 150.033 8.31982 150.328 8.66058C150.419 8.76612 150.516 8.8778 150.618 8.99528C151.231 9.69983 152.025 10.6129 152.816 11.6624C153.741 12.8894 154.625 14.2562 155.178 15.6181C155.734 16.9875 155.913 18.2437 155.588 19.3186C155.399 19.9441 154.697 21.6857 153.56 24.3527C152.435 26.9911 150.91 30.4742 149.105 34.5364C145.497 42.6601 140.777 53.0885 135.914 63.6831C127.992 80.9388 119.718 98.5762 115.241 107.442C114.924 106.084 114.602 104.71 114.277 103.324C118.827 91.6886 123.377 78.8755 127.353 66.9283C131.14 55.5501 134.413 44.9352 136.677 36.8394C137.809 32.793 138.691 29.3652 139.26 26.7813C139.544 25.4907 139.753 24.3966 139.874 23.5342C139.989 22.7231 140.05 21.9753 139.948 21.4664C139.358 18.5072 137.111 16.4356 134.866 15.2595C133.733 14.6657 132.552 14.2727 131.491 14.1003C130.474 13.9348 129.403 13.9459 128.605 14.3494C128.47 14.4172 128.11 14.6213 127.982 15.0758C127.841 15.5762 128.091 15.9543 128.203 16.0942C128.325 16.2468 128.471 16.3598 128.565 16.4286C128.671 16.5059 128.79 16.5822 128.902 16.6525C128.977 16.6994 129.055 16.7474 129.136 16.7969C129.558 17.0561 130.05 17.3585 130.554 17.7842C131.696 18.748 132.851 20.3066 132.47 23.1332C132.378 23.8109 131.878 25.4001 130.988 27.8016C130.116 30.1563 128.912 33.1847 127.48 36.6702C124.617 43.6395 120.858 52.4049 117.053 61.201C115.676 64.3852 114.292 67.5739 112.944 70.6821C111.515 73.9757 110.126 77.179 108.824 80.191C102.3 52.6412 95.899 25.9713 94.4274 19.8404C94.2456 19.0832 94.1391 18.6392 94.1168 18.5457C94.0003 18.0568 93.8541 17.6284 93.6731 17.2976C93.5836 17.1341 93.4625 16.9513 93.2973 16.7969C93.1379 16.6481 92.8473 16.4443 92.4426 16.4443C92.3861 16.4443 92.3317 16.4483 92.2794 16.4556C92.2272 16.4483 92.1728 16.4443 92.1163 16.4443C91.7116 16.4443 91.4209 16.6481 91.2616 16.7969C91.0963 16.9513 90.9752 17.1341 90.8858 17.2976C90.7047 17.6284 90.5585 18.0568 90.442 18.5457C90.4198 18.6392 90.3132 19.0832 90.1314 19.8404C88.7784 25.4777 83.2573 48.4796 77.3059 73.5637C76.8935 72.6127 76.4764 71.6513 76.056 70.6821C74.7075 67.5739 73.3242 64.3852 71.9469 61.201C68.1423 52.4049 64.3825 43.6395 61.5198 36.6702C60.0881 33.1847 58.884 30.1563 58.0118 27.8016C57.1223 25.4001 56.6218 23.8109 56.5303 23.1332C56.1487 20.3066 57.3045 18.748 58.4457 17.7842C58.9497 17.3585 59.4421 17.0561 59.8641 16.7969C59.9448 16.7474 60.0229 16.6994 60.098 16.6525C60.2104 16.5822 60.3292 16.5059 60.4352 16.4286C60.5294 16.3598 60.6753 16.2468 60.7971 16.0942C60.9086 15.9543 61.1588 15.5762 61.018 15.0758C60.89 14.6213 60.5297 14.4172 60.3954 14.3494C59.5967 13.9459 58.5265 13.9348 57.5091 14.1003C56.4484 14.2727 55.2674 14.6657 54.1338 15.2595C51.8889 16.4356 49.6422 18.5072 49.052 21.4664C48.9505 21.9753 49.0113 22.7231 49.1257 23.5342C49.2473 24.3966 49.4561 25.4907 49.7401 26.7813C50.3086 29.3652 51.1912 32.793 52.3228 36.8394C54.5869 44.9352 57.8601 55.5501 61.6468 66.9283C64.8193 76.461 68.3573 86.5449 71.9691 96.142C71.5579 97.8891 71.1501 99.6241 70.7469 101.342C66.0775 91.731 59.4674 77.5832 53.0865 63.6831C48.2229 53.0885 43.5027 42.6601 39.8946 34.5364C38.0903 30.4742 36.5654 26.9911 35.4401 24.3527C34.3026 21.6857 33.6007 19.9441 33.4116 19.3186C33.0868 18.2437 33.2656 16.9875 33.822 15.6181C34.3753 14.2562 35.2592 12.8894 36.184 11.6624C36.9751 10.6128 37.7691 9.69972 38.3817 8.99515C38.4839 8.87772 38.5809 8.76609 38.6721 8.66058C38.9666 8.31982 39.257 7.97912 39.4139 7.73033C39.4555 7.66421 39.5168 7.56029 39.5628 7.43577L39.5636 7.43355C39.5904 7.36113 39.7205 7.00947 39.5442 6.61486C39.3021 6.07327 38.7811 6.00149 38.591 6.00003C38.3981 5.99856 38.2372 6.04824 38.1607 6.07377C34.7166 7.22321 32.0192 10.0532 30.1733 12.7503C29.2409 14.1125 28.5024 15.4747 27.9746 16.6384C27.4576 17.778 27.1107 18.7976 27.0129 19.4625C26.9856 19.6485 27.0089 19.8252 27.0201 19.9052C27.0355 20.0148 27.0593 20.136 27.0872 20.2608C27.1433 20.5123 27.2284 20.8343 27.3376 21.2157C27.5569 21.9816 27.8876 23.0369 28.318 24.3469C29.1797 26.9696 30.4523 30.647 32.0611 35.1426C35.2792 44.1353 39.849 56.4201 45.1827 70.1241C51.4288 86.1725 58.7274 104.18 66.1329 121.132C66.111 121.227 66.0892 121.321 66.0675 121.416C58.9298 109.944 50.3931 96.0106 42.1283 82.1588C33.7738 68.1565 25.7045 54.2503 19.6437 43.0656C16.6127 37.472 14.0904 32.5706 12.2872 28.684C11.3854 26.7401 10.6689 25.0617 10.1595 23.6843C9.6432 22.2881 9.36472 21.2664 9.29606 20.612C8.70569 14.985 12.8312 11.2367 17.3924 8.66418C19.5335 7.45661 21.6725 6.56546 23.284 5.89411C23.3637 5.86089 23.4421 5.82821 23.5192 5.79605C24.3104 5.46604 25.0185 5.1677 25.4739 4.91237C25.6642 4.80565 25.9865 4.61511 26.1913 4.3255C26.3112 4.15592 26.4748 3.83097 26.3865 3.41933C26.3008 3.02005 26.0311 2.7932 25.8698 2.68832C24.9059 2.06179 23.0411 1.4955 20.8614 1.20632C18.6401 0.911621 15.9468 0.884769 13.259 1.44429C10.569 2.00429 7.84835 3.16006 5.63155 5.25935C3.40459 7.36826 1.74764 10.3719 1.1059 14.5125C0.765252 16.7104 1.26848 19.9967 2.34492 24.0353C3.43336 28.119 5.15037 33.1182 7.36109 38.8167C11.7836 50.2165 18.2123 64.4917 25.6332 79.9806C35.1509 99.8459 46.3142 121.735 57 142.163V194.766C57 197.349 58.3114 199.536 60.4022 201.317C62.48 203.088 65.3877 204.517 68.7792 205.641C75.5699 207.891 84.5595 209 93.5 209C102.44 209 111.43 207.891 118.221 205.641C121.612 204.517 124.52 203.088 126.598 201.317C128.689 199.536 130 197.349 130 194.766ZM129.506 16.1346C129.508 16.1336 129.51 16.1326 129.512 16.1317C129.509 16.133 129.508 16.1339 129.507 16.1343L129.506 16.1346ZM59.4932 16.1343C59.4924 16.1339 59.4905 16.133 59.4879 16.1317C59.4899 16.1326 59.4918 16.1336 59.4938 16.1346L59.4932 16.1343ZM59.2874 14.7889C59.2875 14.7888 59.2868 14.7895 59.2852 14.7908C59.2866 14.7895 59.2874 14.7889 59.2874 14.7889ZM37.7254 6.65806C37.7254 6.65819 37.7246 6.6596 37.7228 6.66238C37.7245 6.65939 37.7255 6.65791 37.7254 6.65806Z" stroke-width="2" stroke-linecap="square"/>
</svg>
