<svg xmlns="http://www.w3.org/2000/svg" xmlns:xlink="http://www.w3.org/1999/xlink" id="e5elsPBC9XH1" viewBox="0 0 43 43" shape-rendering="geometricPrecision" text-rendering="geometricPrecision" style="background-color:transparent">

<path d="M36.2753,33.7143c-1.4678,1.0538-5.5265,4.2947-9.08,9.0117L7.34002,41.0273L0.587036,28.1208L14.5016,17.468l28.0854.4166-6.3117,15.8297Z" fill="currentColor"/><path d="M15.9493,21.2175l-6.99597,5.458l19.70857.4166l7.6134-5.8746h-20.326Z" /><g id="e5elsPBC9XH4_to" transform="translate(24.717236,12.221876)"><path id="e5elsPBC9XH4" d="M18.9369,10.0037c-3.6562-2.53884,5.2695-9.277748,5.2695-9.277748s-2.9771,5.106068,1.9114,9.277748s4.676,4.5068,4.676,4.5068c3.0947,2.4684-7.1338,9.2073-7.1338,9.2073s3.8881-5.5566.5464-8.5743l-5.2695-5.1398Z" transform="translate(-24.717236,-12.221876)" fill="#d9d9d9"/></g><g id="e5elsPBC9XH5_to" transform="translate(19.000666,15.340565)"><path id="e5elsPBC9XH5" d="M14.3677,12.9148C12.2221,11.4249,17.46,7.47033,17.46,7.47033s-1.747,2.99637,1.1217,5.44447s5.2258,4.8929,5.2258,4.8929c1.816,1.4485-4.1864,5.4031-4.1864,5.4031s2.2817-3.2608.3207-5.0317l-5.5741-5.2643Z" transform="translate(-19.000666,-15.340565)" fill="#d9d9d9"/></g><g mask="url(#e5elsPBC9XH9)"><g id="e5elsPBC9XH7_to" transform="translate(24.717236,35.495924)"><path id="e5elsPBC9XH7" d="M18.9369,10.0037c-3.6562-2.53884,5.2695-9.277748,5.2695-9.277748s-2.9771,5.106068,1.9114,9.277748s4.676,4.5068,4.676,4.5068c3.0947,2.4684-7.1338,9.2073-7.1338,9.2073s3.8881-5.5566.5464-8.5743l-5.2695-5.1398Z" transform="translate(-24.717236,-12.221876)" opacity="0" fill="#d9d9d9"/></g><g id="e5elsPBC9XH8_to" transform="translate(19.000666,30.870235)"><path id="e5elsPBC9XH8" d="M14.3677,12.9148C12.2221,11.4249,17.46,7.47033,17.46,7.47033s-1.747,2.99637,1.1217,5.44447s5.2258,4.8929,5.2258,4.8929c1.816,1.4485-4.1864,5.4031-4.1864,5.4031s2.2817-3.2608.3207-5.0317l-5.5741-5.2643Z" transform="translate(-19.000666,-15.340565)" opacity="0" fill="#d9d9d9"/></g><mask id="e5elsPBC9XH9" mask-type="luminance"><ellipse rx="14.384371" ry="10.75" transform="matrix(1 0 0 1.246958 23.337701 10.75)" fill="#d2dbed" stroke-width="0"/></mask></g></svg>