<svg width="43" height="43" viewBox="0 0 43 43" fill="none" xmlns="http://www.w3.org/2000/svg">
<path d="M36.2753 33.7143C34.8075 34.7681 30.7488 38.009 27.1953 42.726L7.34002 41.0273L0.587036 28.1208L14.5016 17.468L42.587 17.8846L36.2753 33.7143Z" fill="currentColor"/>
<path d="M15.9493 21.2175L8.95333 26.6755L28.6619 27.0921L36.2753 21.2175H15.9493Z" />
<path d="M18.9369 10.0037C15.2807 7.46486 24.2064 0.725952 24.2064 0.725952C24.2064 0.725952 21.2293 5.83202 26.1178 10.0037C31.0063 14.1754 30.7938 14.5105 30.7938 14.5105C33.8885 16.9789 23.66 23.7178 23.66 23.7178C23.66 23.7178 27.5481 18.1612 24.2064 15.1435L18.9369 10.0037Z" fill="#D9D9D9"/>
<path d="M14.3677 12.9148C12.2221 11.4249 17.46 7.47033 17.46 7.47033C17.46 7.47033 15.713 10.4667 18.5817 12.9148C21.4504 15.3629 23.8075 17.8077 23.8075 17.8077C25.6235 19.2562 19.6211 23.2108 19.6211 23.2108C19.6211 23.2108 21.9028 19.95 19.9418 18.1791L14.3677 12.9148Z" fill="#D9D9D9"/>
</svg>
