<svg width="350" height="94" viewBox="0 0 350 94" fill="none" xmlns="http://www.w3.org/2000/svg">
<path d="M80.0473 53.6832C79.9322 53.9017 79.7947 54.1236 79.6348 54.3488C79.1035 55.0967 78.3627 55.7354 77.4095 56.2645C76.4578 56.7755 75.3405 57.0308 74.0591 57.0308C73.1793 57.0308 72.4104 56.8668 71.751 56.5382C71.1102 56.1916 70.6165 55.7262 70.2679 55.1423C69.9382 54.5585 69.7742 53.9017 69.7742 53.1718C69.7742 52.4238 69.9101 51.7577 70.1851 51.1738C70.4602 50.5717 70.8727 50.0609 71.4212 49.6411C71.9713 49.2032 72.6761 48.8749 73.5371 48.6558C74.3982 48.4187 75.3951 48.3 76.5312 48.3H80.0473V53.6832Z" fill="#9DCD65"/>
<path d="M189.923 53.6844C189.808 53.9026 189.671 54.124 189.512 54.3488C188.981 55.0967 188.239 55.7354 187.287 56.2645C186.334 56.7755 185.218 57.0308 183.935 57.0308C183.057 57.0308 182.288 56.8668 181.628 56.5382C180.988 56.1916 180.492 55.7262 180.144 55.1423C179.816 54.5585 179.65 53.9017 179.65 53.1718C179.65 52.4238 179.788 51.7577 180.063 51.1738C180.338 50.5717 180.749 50.0609 181.299 49.6411C181.847 49.2032 182.553 48.8749 183.413 48.6558C184.274 48.4187 185.273 48.3 186.407 48.3H189.923V53.6844Z" fill="#9DCD65"/>
<path d="M259.019 44.441C259.076 44.0352 259.145 43.6429 259.228 43.264C259.485 42.0963 259.869 41.0928 260.382 40.2534C260.913 39.3959 261.573 38.739 262.36 38.2828C263.165 37.8084 264.109 37.5712 265.188 37.5712C266.526 37.5712 267.615 37.8632 268.458 38.4471C269.3 39.0128 269.923 39.7791 270.325 40.7462C270.728 41.6948 270.949 42.7441 270.985 43.8935V44.441H259.019Z" fill="#9DCD65"/>
<path fill-rule="evenodd" clip-rule="evenodd" d="M9 0C4.02942 0 0 4.02942 0 9V85C0 89.9706 4.02942 94 9 94H341C345.971 94 350 89.9706 350 85V9C350 4.02942 345.971 0 341 0H9ZM24.834 22.1896H15V62.0395H22.554V49.7507L21.7936 31.5851L33.1297 62.0395H38.3763L49.7206 31.6207L48.9794 49.7507V62.0395H56.5335V22.1896H46.672L35.7667 52.1865L24.834 22.1896ZM80.3214 59.1873C80.0509 59.4895 79.758 59.7834 79.4425 60.0689C78.6362 60.7988 77.6658 61.4009 76.5312 61.8754C75.3951 62.3498 74.0762 62.5869 72.576 62.5869C70.6524 62.5869 68.9319 62.2037 67.4114 61.4374C65.8909 60.671 64.6923 59.6219 63.8125 58.2899C62.9343 56.9579 62.4936 55.4435 62.4936 53.7466C62.4936 52.1773 62.7874 50.7906 63.3734 49.5864C63.9594 48.3821 64.8298 47.3696 65.9831 46.5484C67.1364 45.7092 68.5646 45.0797 70.2679 44.6599C71.9901 44.222 73.9575 44.003 76.1734 44.003H80.0473V42.0872C80.0473 41.0836 79.8723 40.2169 79.5253 39.4872C79.1769 38.7572 78.6456 38.1916 77.9314 37.7902C77.2172 37.3888 76.3109 37.188 75.2123 37.188C74.2419 37.188 73.3902 37.3524 72.6573 37.6807C71.9432 38.0091 71.3947 38.4745 71.0103 39.0766C70.6259 39.6605 70.4321 40.3356 70.4321 41.1019H63.153C63.153 39.8794 63.4468 38.7208 64.0328 37.6259C64.6188 36.5129 65.4518 35.5276 66.5316 34.67C67.6301 33.7943 68.9397 33.1101 70.4602 32.6173C71.9979 32.1246 73.72 31.8784 75.6249 31.8784C77.8767 31.8784 79.8817 32.2615 81.6396 33.0279C83.4164 33.776 84.8088 34.9073 85.8152 36.4217C86.8403 37.9362 87.3544 39.843 87.3544 42.1418V55.0603C87.3544 56.5382 87.4451 57.8064 87.6279 58.8647C87.8295 59.9047 88.1233 60.8079 88.5077 61.5742V62.0395H81.1177C80.7708 61.2914 80.5051 60.3426 80.3223 59.1931L80.3214 59.1873ZM107.955 37.6259V32.4258H102.764V25.1454H95.4851V32.4258H90.9252V37.6259H95.4851V54.075C95.4851 56.1368 95.8242 57.7972 96.5009 59.0562C97.179 60.297 98.1307 61.2003 99.3574 61.7659C100.584 62.3132 102.012 62.5869 103.642 62.5869C104.596 62.5869 105.447 62.5231 106.197 62.3953C106.966 62.2676 107.654 62.1033 108.259 61.9026L108.23 56.4836C107.955 56.5382 107.616 56.593 107.215 56.6476C106.811 56.7025 106.372 56.7299 105.896 56.7299C105.236 56.7299 104.669 56.6476 104.192 56.4836C103.716 56.3193 103.359 55.9999 103.12 55.5255C102.883 55.0513 102.764 54.3762 102.764 53.5003V37.6259H107.955ZM127.733 56.2919C126.928 56.6933 126.012 56.894 124.987 56.894C123.723 56.894 122.679 56.6386 121.855 56.1277C121.049 55.6168 120.418 54.9326 119.96 54.075C119.521 53.1992 119.208 52.2139 119.025 51.1191C118.861 50.0243 118.779 48.8749 118.779 47.6705V46.7947C118.779 45.6087 118.861 44.4774 119.025 43.4009C119.208 42.3062 119.521 41.3209 119.96 40.445C120.418 39.551 121.049 38.8484 121.855 38.3376C122.679 37.8268 123.704 37.5712 124.931 37.5712C126.086 37.5712 127.065 37.8268 127.87 38.3376C128.677 38.8484 129.299 39.5236 129.739 40.363C130.178 41.2022 130.416 42.1511 130.453 43.2094H137.293C137.256 40.9103 136.715 38.9123 135.673 37.2155C134.646 35.5185 133.218 34.2048 131.386 33.2742C129.574 32.3437 127.469 31.8784 125.068 31.8784C122.798 31.8784 120.812 32.2615 119.108 33.0279C117.405 33.7943 115.986 34.8618 114.85 36.2302C113.733 37.5986 112.89 39.186 112.323 40.9925C111.775 42.7988 111.5 44.7329 111.5 46.7947V47.6705C111.5 49.7323 111.775 51.6664 112.323 53.4729C112.89 55.2792 113.733 56.8668 114.85 58.2352C115.986 59.6036 117.405 60.671 119.108 61.4374C120.812 62.2037 122.807 62.5869 125.096 62.5869C127.348 62.5869 129.381 62.1307 131.194 61.2184C133.026 60.2878 134.491 59.0288 135.59 57.4414C136.689 55.8541 137.256 54.0568 137.293 52.0496H130.453C130.416 53.0167 130.15 53.8651 129.656 54.595C129.18 55.3248 128.539 55.8905 127.733 56.2919ZM149.242 35.783V20H141.963V62.0395H149.242V40.8755C149.377 40.6212 149.523 40.3773 149.681 40.1439C150.231 39.3593 150.926 38.748 151.768 38.3102C152.611 37.854 153.619 37.6259 154.791 37.6259C155.871 37.6259 156.777 37.7994 157.51 38.1459C158.261 38.4927 158.838 39.0674 159.241 39.8704C159.643 40.6549 159.844 41.7314 159.844 43.0999V62.0395H167.152V43.1545C167.152 41.111 166.914 39.3776 166.438 37.9544C165.98 36.5129 165.32 35.3452 164.459 34.4511C163.6 33.5571 162.564 32.9092 161.356 32.5078C160.165 32.0882 158.838 31.8784 157.372 31.8784C155.669 31.8784 154.113 32.2343 152.703 32.9458C151.373 33.6252 150.221 34.571 149.242 35.783ZM190.197 59.1877C189.927 59.4898 189.635 59.7835 189.32 60.0689C188.514 60.7988 187.543 61.4009 186.407 61.8754C185.273 62.3498 183.954 62.5869 182.452 62.5869C180.53 62.5869 178.808 62.2037 177.287 61.4374C175.768 60.671 174.568 59.6219 173.69 58.2899C172.81 56.9579 172.371 55.4435 172.371 53.7466C172.371 52.1773 172.663 50.7906 173.249 49.5864C173.835 48.3821 174.706 47.3696 175.859 46.5484C177.014 45.7092 178.442 45.0797 180.144 44.6599C181.866 44.222 183.835 44.003 186.051 44.003H189.923V42.0872C189.923 41.0836 189.75 40.2169 189.401 39.4872C189.054 38.7572 188.523 38.1916 187.809 37.7902C187.095 37.3888 186.188 37.188 185.09 37.188C184.118 37.188 183.268 37.3524 182.535 37.6807C181.821 38.0091 181.271 38.4745 180.886 39.0766C180.502 39.6605 180.309 40.3356 180.309 41.1019H173.03C173.03 39.8794 173.323 38.7208 173.909 37.6259C174.495 36.5129 175.328 35.5276 176.409 34.67C177.508 33.7943 178.817 33.1101 180.338 32.6173C181.875 32.1246 183.596 31.8784 185.501 31.8784C187.754 31.8784 189.759 32.2615 191.517 33.0279C193.294 33.776 194.685 34.9073 195.693 36.4217C196.718 37.9362 197.23 39.843 197.23 42.1418V55.0603C197.23 56.5382 197.323 57.8064 197.505 58.8647C197.707 59.9047 197.999 60.8079 198.384 61.5742V62.0395H190.995C190.647 61.2914 190.381 60.3426 190.198 59.1931L190.197 59.1877ZM225.881 40.7822V22.1896H218.327V62.0395H225.881V50.1063L230.353 45.3431L241.483 62.0395H250.465L235.342 39.8116L249.888 22.1896H240.632L229.698 35.847L225.881 40.7822ZM259.997 61.4922C261.793 62.2219 263.815 62.5869 266.068 62.5869C268.009 62.5869 269.722 62.3314 271.205 61.8206C272.688 61.2914 273.952 60.6072 274.996 59.7678C276.057 58.9285 276.901 58.0527 277.523 57.1403L273.869 53.3635C272.953 54.5312 271.874 55.4161 270.628 56.0182C269.402 56.6021 268.028 56.894 266.507 56.894C265.299 56.894 264.218 56.6843 263.266 56.2645C262.332 55.8267 261.527 55.2245 260.849 54.4582C260.189 53.6736 259.686 52.7521 259.338 51.6938C259.115 50.9783 258.968 50.2211 258.896 49.4222H278.128V46.3841C278.128 44.2311 277.853 42.2697 277.302 40.4997C276.754 38.7116 275.938 37.1789 274.859 35.9017C273.777 34.6245 272.432 33.6392 270.82 32.9458C269.209 32.2343 267.35 31.8784 265.245 31.8784C263.212 31.8784 261.352 32.2433 259.668 32.9732C257.983 33.703 256.536 34.7431 255.328 36.0933C254.118 37.4436 253.186 39.0583 252.526 40.9377C251.867 42.7988 251.537 44.8698 251.537 47.1505V48.2454C251.537 50.2524 251.867 52.1318 252.526 53.8835C253.203 55.6168 254.165 57.1403 255.411 58.4541C256.673 59.7496 258.203 60.7623 259.997 61.4922ZM290.045 62.069L279.556 32.4258H287.383L293.389 51.8903L299.279 32.4258H307.051L295.131 66.528C294.856 67.2579 294.498 68.0517 294.059 68.9092C293.637 69.7668 293.07 70.5787 292.356 71.3452C291.642 72.1297 290.745 72.7684 289.663 73.261C288.602 73.7537 287.312 74 285.791 74C285.132 74 284.546 73.9544 284.033 73.8632C283.521 73.7719 282.98 73.6533 282.412 73.5074V68.0881C282.595 68.1064 282.806 68.1155 283.044 68.1155C283.3 68.1338 283.52 68.1429 283.703 68.1429C284.766 68.1429 285.644 68.0151 286.341 67.7598C287.036 67.5225 287.594 67.1303 288.016 66.5828C288.455 66.0538 288.821 65.3603 289.115 64.5028L290.045 62.069ZM326.418 52.2686C326.748 52.7612 326.912 53.3178 326.912 53.9382C326.912 54.6133 326.719 55.2154 326.335 55.7446C325.951 56.2554 325.383 56.666 324.632 56.9762C323.882 57.2681 322.957 57.414 321.858 57.414C320.887 57.414 319.962 57.2681 319.084 56.9762C318.223 56.666 317.509 56.1642 316.942 55.4709C316.373 54.7775 316.062 53.8561 316.007 52.7065H309.058C309.058 54.3305 309.542 55.8997 310.513 57.414C311.483 58.9103 312.911 60.1509 314.798 61.1364C316.684 62.1033 318.992 62.5869 321.72 62.5869C323.607 62.5869 325.301 62.368 326.802 61.93C328.304 61.4739 329.595 60.8444 330.676 60.0415C331.756 59.2387 332.58 58.299 333.148 57.2225C333.716 56.1278 334 54.9234 334 53.6097C334 51.7669 333.533 50.2524 332.598 49.0664C331.664 47.8804 330.364 46.9316 328.698 46.22C327.049 45.4901 325.118 44.9062 322.902 44.4684C321.784 44.2311 320.842 43.9847 320.072 43.7294C319.322 43.4739 318.726 43.1912 318.287 42.8809C317.848 42.5707 317.528 42.2331 317.326 41.8683C317.142 41.4851 317.051 41.0563 317.051 40.5819C317.051 39.9432 317.224 39.3593 317.573 38.8303C317.922 38.301 318.434 37.8722 319.111 37.5438C319.808 37.2155 320.658 37.0512 321.666 37.0512C322.783 37.0512 323.708 37.2519 324.439 37.6533C325.172 38.0365 325.713 38.5474 326.06 39.186C326.427 39.8247 326.61 40.5363 326.61 41.3209H333.863C333.863 39.5328 333.376 37.927 332.406 36.5038C331.436 35.0624 330.034 33.9311 328.204 33.1101C326.39 32.2889 324.221 31.8784 321.694 31.8784C319.88 31.8784 318.25 32.1246 316.804 32.6173C315.357 33.0917 314.13 33.7486 313.122 34.588C312.116 35.409 311.346 36.3671 310.816 37.4618C310.285 38.5383 310.019 39.6879 310.019 40.9103C310.019 42.1693 310.275 43.2824 310.788 44.2495C311.319 45.1981 312.052 46.0283 312.985 46.7401C313.919 47.4334 315.037 48.0263 316.337 48.5189C317.637 49.0116 319.056 49.4222 320.594 49.7507C322.334 50.1155 323.652 50.5079 324.55 50.9275C325.466 51.3289 326.088 51.7759 326.418 52.2686Z" fill="#9DCD65"/>
</svg>
