<svg width="287" height="49" viewBox="0 0 287 49" fill="none" xmlns="http://www.w3.org/2000/svg">
<ellipse cx="28.5319" cy="13.0168" rx="22.5028" ry="7.6495" fill="#9DCD65"/>
<g filter="url(#filter0_d_24_162)">
<path d="M51.3413 12.8956C51.3413 13.7538 50.8304 14.6475 49.7316 15.5306C48.6375 16.4099 47.0236 17.2239 44.985 17.9169C40.9126 19.3013 35.2546 20.1663 28.9818 20.1663C22.7089 20.1663 17.0509 19.3013 12.9786 17.9169C10.9399 17.2239 9.32606 16.4099 8.23192 15.5306C7.1332 14.6475 6.62228 13.7538 6.62228 12.8956C6.62228 12.0373 7.1332 11.1436 8.23192 10.2606C9.32606 9.38123 10.9399 8.56724 12.9786 7.87423C17.0509 6.4899 22.7089 5.62483 28.9818 5.62483C35.2546 5.62483 40.9126 6.4899 44.985 7.87423C47.0236 8.56724 48.6375 9.38123 49.7316 10.2606C50.8304 11.1436 51.3413 12.0373 51.3413 12.8956Z" stroke="#8DBB58" shape-rendering="crispEdges"/>
</g>
<g filter="url(#filter1_d_24_162)">
<path d="M44.7684 12.5122C44.7684 13.0803 44.4305 13.6975 43.6446 14.3291C42.8634 14.957 41.7022 15.5445 40.223 16.0473C37.2696 17.0513 33.1574 17.6811 28.5919 17.6811C24.0265 17.6811 19.9143 17.0513 16.9608 16.0473C15.4816 15.5445 14.3205 14.957 13.5392 14.3291C12.7534 13.6975 12.4155 13.0803 12.4155 12.5122C12.4155 11.9441 12.7534 11.3269 13.5392 10.6954C14.3205 10.0675 15.4816 9.47992 16.9608 8.97709C19.9143 7.97312 24.0265 7.34331 28.5919 7.34331C33.1574 7.34331 37.2696 7.97312 40.223 8.97709C41.7022 9.47992 42.8634 10.0675 43.6446 10.6954C44.4305 11.3269 44.7684 11.9441 44.7684 12.5122Z" stroke="#8DBB58" shape-rendering="crispEdges"/>
</g>
<path d="M35.2742 6.83535L27.3523 9.41175L26.564 19.2798L38.8936 14.9177L35.2742 6.83535Z" fill="#F5EED4" stroke="#ACA794"/>
<path d="M21.6245 4.22577L28.2782 1.92508L34.5092 6.10976L27.0764 8.48813L21.6245 4.22577Z" fill="#F5EED4" stroke="#ACA794"/>
<path d="M21.2182 4.39284C20.2627 6.87808 21.2182 4.39284 18.1701 13.1635L25.8911 19.0942L26.7716 8.81994C26.7716 8.81994 26.7716 8.81994 21.2182 4.39284Z" fill="#F5EED4" stroke="#ACA794"/>
<path d="M24.6898 4.14243L25.282 3.998L28.3212 5.35919L27.4986 3.39068L28.0599 3.20479L29.4418 6.21781L28.8476 6.38534L24.6898 4.14243ZM24.3575 4.20738L25.0221 4.07749L27.3364 6.84609L26.6403 7.2021L24.3575 4.20738ZM27.7793 3.29774L28.3212 3.07652L31.8359 5.65238L31.1826 5.90371L27.7793 3.29774Z" fill="#ACA794"/>
<path d="M46.1767 16.1415L28.9719 18.6982L20.2659 18.1869L12.5963 16.8233L6.17044 14.3519L1.74834 10.4316L1.12646 19.7209L2.43929 26.7091L6.58501 35.0608L11.7672 42.9013L17.5712 45.9693L22.9606 46.8215H28.4192H33.9468L39.7508 45.9693L44.5875 43.4978L51.2207 34.2086L54.8827 26.283L56.1265 18.6982L55.6428 10.4316L51.2207 14.3519L46.1767 16.1415Z" fill="#303033"/>
<path d="M46.384 40.9386C46.384 44.4558 38.561 47.3071 28.5505 47.3071C18.54 47.3071 10.7999 44.4558 10.7999 40.9386" stroke="black"/>
<path d="M55.5038 9.61407C55.5038 10.6845 54.8664 11.7802 53.539 12.847C52.2162 13.9102 50.2714 14.8897 47.8238 15.7217C42.9337 17.384 36.1459 18.421 28.6251 18.421C21.1043 18.421 14.3165 17.384 9.42638 15.7217C6.97882 14.8897 5.03403 13.9102 3.71121 12.847C2.3838 11.7802 1.74643 10.6845 1.74643 9.61407C1.74643 8.54369 2.3838 7.44794 3.71121 6.38111C5.03403 5.31796 6.97882 4.33846 9.42638 3.50644C14.3165 1.84411 21.1043 0.807098 28.6251 0.807098C36.1459 0.807098 42.9337 1.84411 47.8238 3.50644C50.2714 4.33846 52.2162 5.31796 53.539 6.38111C54.8664 7.44794 55.5038 8.54369 55.5038 9.61407Z" stroke="black"/>
<path d="M10.9981 40.9385C1.94747 30.3591 0.390669 23.5995 1.60708 10.6025" stroke="black"/>
<path d="M46.2521 40.9385C55.3027 30.3591 56.8595 23.5995 55.6431 10.6025" stroke="black"/>
<path d="M81.3402 13.5311H85.5238L92.5199 32.7967L99.4984 13.5311H103.7L94.1898 39.1248H90.8324L81.3402 13.5311ZM79.2308 13.5311H83.3265L84.0648 31.2323V39.1248H79.2308V13.5311ZM101.696 13.5311H105.809V39.1248H100.975V31.2323L101.696 13.5311ZM120.856 35.0819V26.3104C120.856 25.6658 120.744 25.1092 120.522 24.6405C120.299 24.1717 119.959 23.8084 119.502 23.5506C119.045 23.2928 118.465 23.1639 117.762 23.1639C117.141 23.1639 116.596 23.2694 116.127 23.4803C115.67 23.6912 115.319 23.9901 115.073 24.3768C114.827 24.7518 114.703 25.1854 114.703 25.6776H110.045C110.045 24.8924 110.233 24.1483 110.608 23.4451C110.983 22.7303 111.516 22.0975 112.207 21.5467C112.91 20.9842 113.748 20.5448 114.721 20.2283C115.705 19.9119 116.807 19.7537 118.026 19.7537C119.467 19.7537 120.75 19.9998 121.875 20.492C123.012 20.9725 123.903 21.6991 124.547 22.6717C125.203 23.6444 125.532 24.869 125.532 26.3455V34.6424C125.532 35.5916 125.59 36.4061 125.707 37.0858C125.836 37.7537 126.024 38.3338 126.27 38.826V39.1248H121.541C121.319 38.6444 121.149 38.035 121.032 37.2967C120.914 36.5467 120.856 35.8084 120.856 35.0819ZM121.506 27.5408L121.541 30.3006H118.606C117.879 30.3006 117.241 30.3768 116.69 30.5291C116.139 30.6698 115.688 30.8807 115.336 31.1619C114.985 31.4315 114.721 31.7596 114.545 32.1463C114.369 32.5213 114.282 32.9491 114.282 33.4295C114.282 33.8983 114.387 34.3201 114.598 34.6951C114.821 35.0701 115.137 35.369 115.547 35.5916C115.969 35.8026 116.461 35.908 117.024 35.908C117.844 35.908 118.559 35.744 119.168 35.4158C119.778 35.076 120.252 34.6658 120.592 34.1854C120.932 33.7049 121.114 33.2479 121.137 32.8143L122.473 34.8182C122.309 35.2987 122.063 35.8084 121.735 36.3475C121.407 36.8866 120.985 37.3905 120.469 37.8592C119.953 38.328 119.332 38.7147 118.606 39.0194C117.879 39.3241 117.035 39.4764 116.075 39.4764C114.844 39.4764 113.743 39.2303 112.77 38.7381C111.797 38.2459 111.03 37.5721 110.467 36.7166C109.905 35.8612 109.623 34.8885 109.623 33.7987C109.623 32.7908 109.811 31.9002 110.186 31.1268C110.561 30.3533 111.118 29.703 111.856 29.1756C112.594 28.6366 113.508 28.2323 114.598 27.9627C115.7 27.6815 116.959 27.5408 118.377 27.5408H121.506ZM138.715 20.1053V23.4451H127.817V20.1053H138.715ZM130.735 15.4295H135.393V33.6405C135.393 34.203 135.469 34.6366 135.621 34.9412C135.774 35.2459 136.002 35.451 136.307 35.5565C136.612 35.6619 136.975 35.7147 137.397 35.7147C137.702 35.7147 137.983 35.6971 138.241 35.6619C138.498 35.6268 138.715 35.5916 138.891 35.5565L138.909 39.0369C138.522 39.1658 138.082 39.2713 137.59 39.3533C137.11 39.4354 136.565 39.4764 135.955 39.4764C134.912 39.4764 133.998 39.3006 133.213 38.9491C132.428 38.5858 131.819 38.0057 131.385 37.2088C130.952 36.4002 130.735 35.3338 130.735 34.0096V15.4295ZM149.614 35.8201C150.27 35.8201 150.856 35.6912 151.371 35.4334C151.887 35.1756 152.297 34.8123 152.602 34.3436C152.918 33.8748 153.088 33.3299 153.112 32.7088H157.489C157.465 33.9979 157.102 35.1522 156.399 36.1717C155.696 37.1912 154.758 37.9998 153.586 38.5975C152.426 39.1834 151.125 39.4764 149.684 39.4764C148.219 39.4764 146.942 39.2303 145.852 38.7381C144.762 38.2459 143.854 37.5604 143.127 36.6815C142.412 35.8026 141.873 34.783 141.51 33.6229C141.159 32.4627 140.983 31.2205 140.983 29.8963V29.3338C140.983 28.0096 141.159 26.7674 141.51 25.6073C141.873 24.4471 142.412 23.4276 143.127 22.5487C143.854 21.6698 144.762 20.9842 145.852 20.492C146.942 19.9998 148.213 19.7537 149.666 19.7537C151.202 19.7537 152.549 20.0526 153.709 20.6502C154.881 21.2479 155.795 22.0916 156.452 23.1815C157.119 24.2713 157.465 25.5545 157.489 27.0311H153.112C153.088 26.3514 152.936 25.742 152.655 25.203C152.373 24.6639 151.975 24.2303 151.459 23.9022C150.944 23.5741 150.317 23.41 149.578 23.41C148.793 23.41 148.137 23.5741 147.61 23.9022C147.094 24.2303 146.69 24.6815 146.397 25.2557C146.116 25.8182 145.916 26.451 145.799 27.1541C145.694 27.8455 145.641 28.5721 145.641 29.3338V29.8963C145.641 30.6698 145.694 31.408 145.799 32.1112C145.916 32.8143 146.116 33.4471 146.397 34.0096C146.69 34.5604 147.094 34.9998 147.61 35.328C148.137 35.6561 148.805 35.8201 149.614 35.8201ZM165.135 12.1248V39.1248H160.477V12.1248H165.135ZM164.397 28.9295H163.026C163.026 27.6053 163.202 26.3866 163.553 25.2733C163.905 24.16 164.403 23.1932 165.047 22.3729C165.692 21.5408 166.459 20.8963 167.35 20.4393C168.252 19.9823 169.248 19.7537 170.338 19.7537C171.276 19.7537 172.125 19.8885 172.887 20.158C173.66 20.4158 174.323 20.8319 174.873 21.4061C175.424 21.9803 175.846 22.7303 176.139 23.6561C176.444 24.5701 176.596 25.6834 176.596 26.9959V39.1248H171.92V26.9608C171.92 26.0819 171.791 25.3905 171.534 24.8866C171.276 24.3709 170.907 24.0018 170.426 23.7791C169.957 23.5565 169.377 23.4451 168.686 23.4451C167.936 23.4451 167.291 23.5916 166.752 23.8846C166.213 24.1658 165.768 24.5584 165.416 25.0623C165.077 25.5662 164.819 26.1463 164.643 26.8026C164.479 27.4588 164.397 28.1678 164.397 28.9295ZM191.168 35.0819V26.3104C191.168 25.6658 191.057 25.1092 190.834 24.6405C190.612 24.1717 190.272 23.8084 189.815 23.5506C189.358 23.2928 188.778 23.1639 188.075 23.1639C187.453 23.1639 186.909 23.2694 186.44 23.4803C185.983 23.6912 185.631 23.9901 185.385 24.3768C185.139 24.7518 185.016 25.1854 185.016 25.6776H180.358C180.358 24.8924 180.545 24.1483 180.92 23.4451C181.295 22.7303 181.828 22.0975 182.52 21.5467C183.223 20.9842 184.061 20.5448 185.034 20.2283C186.018 19.9119 187.119 19.7537 188.338 19.7537C189.78 19.7537 191.063 19.9998 192.188 20.492C193.325 20.9725 194.215 21.6991 194.86 22.6717C195.516 23.6444 195.844 24.869 195.844 26.3455V34.6424C195.844 35.5916 195.903 36.4061 196.02 37.0858C196.149 37.7537 196.336 38.3338 196.582 38.826V39.1248H191.854C191.631 38.6444 191.461 38.035 191.344 37.2967C191.227 36.5467 191.168 35.8084 191.168 35.0819ZM191.819 27.5408L191.854 30.3006H188.918C188.192 30.3006 187.553 30.3768 187.002 30.5291C186.452 30.6698 186 30.8807 185.649 31.1619C185.297 31.4315 185.034 31.7596 184.858 32.1463C184.682 32.5213 184.594 32.9491 184.594 33.4295C184.594 33.8983 184.7 34.3201 184.91 34.6951C185.133 35.0701 185.45 35.369 185.86 35.5916C186.282 35.8026 186.774 35.908 187.336 35.908C188.157 35.908 188.871 35.744 189.481 35.4158C190.09 35.076 190.565 34.6658 190.905 34.1854C191.244 33.7049 191.426 33.2479 191.45 32.8143L192.785 34.8182C192.621 35.2987 192.375 35.8084 192.047 36.3475C191.719 36.8866 191.297 37.3905 190.782 37.8592C190.266 38.328 189.645 38.7147 188.918 39.0194C188.192 39.3241 187.348 39.4764 186.387 39.4764C185.157 39.4764 184.055 39.2303 183.082 38.7381C182.11 38.2459 181.342 37.5721 180.78 36.7166C180.217 35.8612 179.936 34.8885 179.936 33.7987C179.936 32.7908 180.123 31.9002 180.498 31.1268C180.873 30.3533 181.43 29.703 182.168 29.1756C182.907 28.6366 183.821 28.2323 184.91 27.9627C186.012 27.6815 187.272 27.5408 188.69 27.5408H191.819ZM214.178 13.5311V39.1248H209.344V13.5311H214.178ZM229.541 13.5311L219.276 26.0116L213.405 32.2869L212.543 27.5936L216.621 22.3026L223.618 13.5311H229.541ZM224.162 39.1248L216.2 27.1366L219.662 24.0076L229.91 39.1248H224.162ZM239.895 39.4764C238.453 39.4764 237.159 39.242 236.01 38.7733C234.862 38.3045 233.883 37.6541 233.075 36.8221C232.278 35.9783 231.662 34.9998 231.229 33.8866C230.807 32.7616 230.596 31.5545 230.596 30.2655V29.5623C230.596 28.0975 230.807 26.7674 231.229 25.5721C231.651 24.3651 232.248 23.328 233.022 22.4608C233.795 21.5936 234.721 20.9256 235.799 20.4569C236.877 19.9881 238.067 19.7537 239.368 19.7537C240.715 19.7537 241.905 19.9823 242.936 20.4393C243.967 20.8846 244.828 21.5174 245.52 22.3377C246.211 23.158 246.733 24.1424 247.084 25.2908C247.436 26.4276 247.612 27.6873 247.612 29.0701V31.0213H232.705V27.8221H243.041V27.4705C243.018 26.7323 242.877 26.0584 242.619 25.4491C242.362 24.828 241.963 24.3358 241.424 23.9725C240.885 23.5975 240.188 23.41 239.332 23.41C238.641 23.41 238.037 23.5623 237.522 23.867C237.018 24.16 236.596 24.5819 236.256 25.1326C235.928 25.6717 235.682 26.3162 235.518 27.0662C235.354 27.8162 235.272 28.6483 235.272 29.5623V30.2655C235.272 31.0623 235.377 31.8006 235.588 32.4803C235.811 33.16 236.133 33.7518 236.555 34.2557C236.989 34.7479 237.504 35.1346 238.102 35.4158C238.711 35.6854 239.403 35.8201 240.176 35.8201C241.149 35.8201 242.028 35.6326 242.813 35.2576C243.61 34.8709 244.301 34.3026 244.887 33.5526L247.225 35.9783C246.827 36.5643 246.287 37.1268 245.608 37.6658C244.94 38.2049 244.131 38.6444 243.182 38.9842C242.233 39.3123 241.137 39.4764 239.895 39.4764ZM256.049 37.0155L261.147 20.1053H266.121L258.493 42.0076C258.317 42.4764 258.088 42.9862 257.807 43.5369C257.537 44.0877 257.174 44.6092 256.717 45.1014C256.26 45.6053 255.686 46.0155 254.994 46.3319C254.315 46.6483 253.489 46.8065 252.516 46.8065C252.094 46.8065 251.719 46.7772 251.391 46.7186C251.063 46.66 250.717 46.5838 250.354 46.4901V43.0096C250.471 43.0213 250.606 43.0272 250.758 43.0272C250.922 43.0389 251.063 43.0448 251.18 43.0448C251.86 43.0448 252.422 42.9627 252.868 42.7987C253.313 42.6463 253.67 42.3944 253.94 42.0428C254.221 41.703 254.455 41.2576 254.643 40.7069L256.049 37.0155ZM253.535 20.1053L257.842 34.1151L258.598 39.0194L255.399 39.5994L248.526 20.1053H253.535ZM278.83 33.9217C278.83 33.5233 278.725 33.1658 278.514 32.8494C278.303 32.533 277.905 32.2459 277.319 31.9881C276.744 31.7186 275.901 31.4666 274.787 31.2323C273.803 31.0213 272.895 30.7576 272.063 30.4412C271.231 30.1248 270.516 29.744 269.918 29.2987C269.321 28.8416 268.852 28.3084 268.512 27.6991C268.184 27.078 268.02 26.3631 268.02 25.5545C268.02 24.7694 268.19 24.0311 268.53 23.3397C268.869 22.6366 269.362 22.0213 270.006 21.494C270.651 20.9549 271.436 20.533 272.362 20.2283C273.287 19.9119 274.33 19.7537 275.491 19.7537C277.108 19.7537 278.496 20.0174 279.657 20.5448C280.828 21.0721 281.725 21.7987 282.346 22.7244C282.967 23.6385 283.278 24.6698 283.278 25.8182H278.637C278.637 25.3143 278.52 24.8573 278.285 24.4471C278.063 24.0369 277.717 23.7088 277.248 23.4627C276.78 23.2049 276.188 23.076 275.473 23.076C274.828 23.076 274.284 23.1815 273.838 23.3924C273.405 23.6033 273.077 23.8787 272.854 24.2186C272.631 24.5584 272.52 24.9334 272.52 25.3436C272.52 25.6483 272.578 25.9237 272.696 26.1698C272.825 26.4041 273.03 26.6209 273.311 26.8201C273.592 27.0194 273.973 27.201 274.453 27.3651C274.946 27.5291 275.549 27.6873 276.264 27.8397C277.682 28.1209 278.918 28.4959 279.973 28.9647C281.039 29.4217 281.871 30.0311 282.469 30.7928C283.067 31.5545 283.366 32.5272 283.366 33.7108C283.366 34.5545 283.184 35.328 282.821 36.0311C282.457 36.7225 281.93 37.326 281.239 37.8416C280.547 38.3573 279.721 38.7616 278.76 39.0545C277.799 39.3358 276.715 39.4764 275.508 39.4764C273.762 39.4764 272.285 39.1658 271.078 38.5448C269.871 37.9119 268.957 37.1151 268.336 36.1541C267.715 35.1815 267.405 34.1737 267.405 33.1307H271.852C271.887 33.869 272.086 34.4608 272.45 34.9061C272.813 35.3514 273.27 35.6737 273.821 35.8729C274.383 36.0604 274.975 36.1541 275.596 36.1541C276.299 36.1541 276.891 36.0604 277.371 35.8729C277.852 35.6737 278.215 35.41 278.461 35.0819C278.707 34.742 278.83 34.3553 278.83 33.9217Z" fill="black"/>
<defs>
<filter id="filter0_d_24_162" x="2.12228" y="5.12483" width="53.719" height="23.5415" filterUnits="userSpaceOnUse" color-interpolation-filters="sRGB">
<feFlood flood-opacity="0" result="BackgroundImageFix"/>
<feColorMatrix in="SourceAlpha" type="matrix" values="0 0 0 0 0 0 0 0 0 0 0 0 0 0 0 0 0 0 127 0" result="hardAlpha"/>
<feOffset dy="4"/>
<feGaussianBlur stdDeviation="2"/>
<feComposite in2="hardAlpha" operator="out"/>
<feColorMatrix type="matrix" values="0 0 0 0 0 0 0 0 0 0 0 0 0 0 0 0 0 0 0.25 0"/>
<feBlend mode="normal" in2="BackgroundImageFix" result="effect1_dropShadow_24_162"/>
<feBlend mode="normal" in="SourceGraphic" in2="effect1_dropShadow_24_162" result="shape"/>
</filter>
<filter id="filter1_d_24_162" x="7.9155" y="6.84331" width="41.3529" height="19.3378" filterUnits="userSpaceOnUse" color-interpolation-filters="sRGB">
<feFlood flood-opacity="0" result="BackgroundImageFix"/>
<feColorMatrix in="SourceAlpha" type="matrix" values="0 0 0 0 0 0 0 0 0 0 0 0 0 0 0 0 0 0 127 0" result="hardAlpha"/>
<feOffset dy="4"/>
<feGaussianBlur stdDeviation="2"/>
<feComposite in2="hardAlpha" operator="out"/>
<feColorMatrix type="matrix" values="0 0 0 0 0 0 0 0 0 0 0 0 0 0 0 0 0 0 0.25 0"/>
<feBlend mode="normal" in2="BackgroundImageFix" result="effect1_dropShadow_24_162"/>
<feBlend mode="normal" in="SourceGraphic" in2="effect1_dropShadow_24_162" result="shape"/>
</filter>
</defs>
</svg>
