<?xml version="1.0" encoding="utf-8"?>
<svg viewBox="0 0 500 500" xmlns="http://www.w3.org/2000/svg">
  <g transform="matrix(1, 0, 0, 0.992748, -34.693089, -4.058905)" style="">
    <rect x="194.967" y="158.665" width="296.716" height="106.056" style="stroke: rgb(0, 0, 0); fill: rgb(27, 79, 84);"/>
    <path d="M 191.003 158.665 H 493.382 A 2.831 2.831 0 0 1 496.213 161.496 V 269.142 A 2.831 2.831 0 0 1 493.382 271.973 H 191.003 A 2.831 2.831 0 0 1 188.172 269.142 V 161.496 A 2.831 2.831 0 0 1 191.003 158.665 Z M 196.666 168.005 V 262.633 H 487.719 V 168.005 H 196.666 Z" style="stroke: rgb(0, 0, 0); fill: rgb(50, 143, 152);"/>
    <rect x="198.787" y="168.746" width="17.554" height="17.554" style="stroke: rgb(0, 0, 0); fill: rgb(152, 149, 50);"/>
    <rect x="217.799" y="168.746" width="17.554" height="17.554" style="stroke: rgb(0, 0, 0); fill: rgb(50, 143, 152);"/>
    <rect x="236.741" y="168.746" width="17.554" height="17.554" style="stroke: rgb(0, 0, 0); fill: rgb(50, 143, 152);"/>
    <rect x="255.698" y="168.746" width="17.554" height="17.554" style="stroke: rgb(0, 0, 0); fill: rgb(50, 143, 152);"/>
    <rect x="274.889" y="168.746" width="17.554" height="17.554" style="stroke: rgb(0, 0, 0); fill: rgb(50, 143, 152);"/>
    <rect x="293.901" y="168.746" width="17.554" height="17.554" style="stroke: rgb(0, 0, 0); fill: rgb(50, 143, 152);"/>
    <rect x="312.843" y="168.746" width="17.554" height="17.554" style="stroke: rgb(0, 0, 0); fill: rgb(50, 143, 152);"/>
    <rect x="331.8" y="168.746" width="17.554" height="17.554" style="stroke: rgb(0, 0, 0); fill: rgb(50, 143, 152);"/>
    <rect x="224.263" y="186.877" width="17.554" height="17.554" style="stroke: rgb(0, 0, 0); fill: rgb(50, 143, 152);"/>
    <rect x="243.275" y="186.877" width="17.554" height="17.554" style="stroke: rgb(0, 0, 0); fill: rgb(50, 143, 152);"/>
    <rect x="262.217" y="186.877" width="17.554" height="17.554" style="stroke: rgb(0, 0, 0); fill: rgb(50, 143, 152);"/>
    <rect x="281.174" y="186.877" width="17.554" height="17.554" style="stroke: rgb(0, 0, 0); fill: rgb(50, 143, 152);"/>
    <rect x="300.365" y="186.877" width="17.554" height="17.554" style="stroke: rgb(0, 0, 0); fill: rgb(50, 143, 152);"/>
    <rect x="319.377" y="186.877" width="17.554" height="17.554" style="stroke: rgb(0, 0, 0); fill: rgb(50, 143, 152);"/>
    <rect x="338.319" y="186.877" width="17.554" height="17.554" style="stroke: rgb(0, 0, 0); fill: rgb(50, 143, 152);"/>
    <rect x="357.276" y="186.877" width="17.554" height="17.554" style="stroke: rgb(0, 0, 0); fill: rgb(50, 143, 152);"/>
    <rect x="236.741" y="205.818" width="17.554" height="17.554" style="stroke: rgb(0, 0, 0); fill: rgb(50, 143, 152);"/>
    <rect x="255.698" y="205.818" width="17.554" height="17.554" style="stroke: rgb(0, 0, 0); fill: rgb(50, 143, 152);"/>
    <rect x="274.889" y="205.818" width="17.554" height="17.554" style="stroke: rgb(0, 0, 0); fill: rgb(50, 143, 152);"/>
    <rect x="293.901" y="205.818" width="17.554" height="17.554" style="stroke: rgb(0, 0, 0); fill: rgb(50, 143, 152);"/>
    <rect x="312.843" y="205.818" width="17.554" height="17.554" style="stroke: rgb(0, 0, 0); fill: rgb(50, 143, 152);"/>
    <rect x="331.8" y="205.818" width="17.554" height="17.554" style="stroke: rgb(0, 0, 0); fill: rgb(50, 143, 152);"/>
    <rect x="350.705" y="205.818" width="17.554" height="17.554" style="stroke: rgb(0, 0, 0); fill: rgb(50, 143, 152);"/>
    <rect x="369.896" y="205.818" width="17.554" height="17.554" style="stroke: rgb(0, 0, 0); fill: rgb(50, 143, 152);"/>
    <rect x="198.787" y="205.818" width="36.566" height="17.554" style="stroke: rgb(0, 0, 0); fill: rgb(50, 143, 152);"/>
    <rect x="198.787" y="186.877" width="23.997" height="17.554" style="stroke: rgb(0, 0, 0); fill: rgb(50, 143, 152);"/>
    <rect x="350.705" y="168.746" width="17.554" height="17.554" style="stroke: rgb(0, 0, 0); fill: rgb(50, 143, 152);"/>
    <rect x="369.896" y="168.746" width="17.554" height="17.554" style="stroke: rgb(0, 0, 0); fill: rgb(50, 143, 152);"/>
    <rect x="388.908" y="168.746" width="17.554" height="17.554" style="stroke: rgb(0, 0, 0); fill: rgb(50, 143, 152);"/>
    <rect x="407.85" y="168.746" width="17.554" height="17.554" style="stroke: rgb(0, 0, 0); fill: rgb(50, 143, 152);"/>
    <rect x="426.807" y="168.746" width="17.554" height="17.554" style="stroke: rgb(0, 0, 0); fill: rgb(50, 143, 152);"/>
    <rect x="376.103" y="186.877" width="17.554" height="17.554" style="stroke: rgb(0, 0, 0); fill: rgb(50, 143, 152);"/>
    <rect x="395.294" y="186.877" width="17.554" height="17.554" style="stroke: rgb(0, 0, 0); fill: rgb(50, 143, 152);"/>
    <rect x="414.306" y="186.877" width="17.554" height="17.554" style="stroke: rgb(0, 0, 0); fill: rgb(50, 143, 152);"/>
    <rect x="433.248" y="186.877" width="17.554" height="17.554" style="stroke: rgb(0, 0, 0); fill: rgb(50, 143, 152);"/>
    <rect x="445.703" y="168.746" width="40.18" height="17.554" style="stroke: rgb(0, 0, 0); fill: rgb(50, 143, 152);"/>
    <rect x="452.835" y="186.877" width="33.048" height="17.554" style="stroke: rgb(0, 0, 0); fill: rgb(50, 143, 152);"/>
    <rect x="388.908" y="205.818" width="17.554" height="17.554" style="stroke: rgb(0, 0, 0); fill: rgb(50, 143, 152);"/>
    <rect x="407.85" y="205.818" width="17.554" height="17.554" style="stroke: rgb(0, 0, 0); fill: rgb(50, 143, 152);"/>
    <rect x="426.807" y="205.818" width="17.554" height="17.554" style="stroke: rgb(0, 0, 0); fill: rgb(50, 143, 152);"/>
    <rect x="445.703" y="205.818" width="40.18" height="17.554" style="stroke: rgb(0, 0, 0); fill: rgb(50, 143, 152);"/>
    <rect x="248.103" y="224.818" width="17.554" height="17.554" style="stroke: rgb(0, 0, 0); fill: rgb(50, 143, 152);"/>
    <rect x="267.294" y="224.818" width="17.554" height="17.554" style="stroke: rgb(0, 0, 0); fill: rgb(50, 143, 152);"/>
    <rect x="286.306" y="224.818" width="17.554" height="17.554" style="stroke: rgb(0, 0, 0); fill: rgb(50, 143, 152);"/>
    <rect x="305.574" y="224.818" width="17.554" height="17.554" style="stroke: rgb(0, 0, 0); fill: rgb(50, 143, 152);"/>
    <rect x="324.531" y="224.818" width="17.554" height="17.554" style="stroke: rgb(0, 0, 0); fill: rgb(50, 143, 152);"/>
    <rect x="343.436" y="224.818" width="17.554" height="17.554" style="stroke: rgb(0, 0, 0); fill: rgb(50, 143, 152);"/>
    <rect x="362.627" y="224.818" width="17.554" height="17.554" style="stroke: rgb(0, 0, 0); fill: rgb(50, 143, 152);"/>
    <rect x="198.787" y="224.818" width="48" height="17.554" style="stroke: rgb(0, 0, 0); fill: rgb(50, 143, 152);"/>
    <rect x="381.639" y="224.818" width="17.554" height="17.554" style="stroke: rgb(0, 0, 0); fill: rgb(50, 143, 152);"/>
    <rect x="400.581" y="224.818" width="17.554" height="17.554" style="stroke: rgb(0, 0, 0); fill: rgb(50, 143, 152);"/>
    <rect x="438.883" y="224.818" width="47" height="17.554" style="stroke: rgb(0, 0, 0); fill: rgb(13, 72, 112);"/>
    <rect x="419.523" y="224.818" width="17.554" height="17.554" style="stroke: rgb(0, 0, 0); fill: rgb(50, 143, 152);"/>
    <rect x="229.233" y="243.818" width="17.554" height="17.554" style="stroke: rgb(0, 0, 0); fill: rgb(50, 143, 152);"/>
    <rect x="248.103" y="243.818" width="29.15" height="17.554" style="stroke: rgb(0, 0, 0); fill: rgb(50, 143, 152);"/>
    <rect x="279.181" y="243.818" width="120.012" height="17.554" style="stroke: rgb(0, 0, 0); fill: rgb(50, 143, 152);"/>
    <rect x="198.787" y="243.818" width="29.488" height="17.554" style="stroke: rgb(0, 0, 0); fill: rgb(50, 143, 152);"/>
    <rect x="400.581" y="243.818" width="29.821" height="17.554" style="stroke: rgb(0, 0, 0); fill: rgb(50, 143, 152);"/>
    <rect x="450.802" y="243.818" width="35.081" height="17.554" style="stroke: rgb(0, 0, 0); fill: rgb(50, 143, 152);"/>
    <rect x="431.86" y="243.818" width="17.554" height="17.554" style="stroke: rgb(0, 0, 0); fill: rgb(50, 143, 152);"/>
  </g>
  <g transform="matrix(1, 0, 0, 0.992748, -101.176056, 36.490601)" style="">
    <rect x="194.967" y="158.665" width="296.716" height="106.056" style="stroke: rgb(0, 0, 0); fill: rgb(105, 96, 37);"/>
    <path d="M 191.003 158.665 H 493.382 A 2.831 2.831 0 0 1 496.213 161.496 V 269.142 A 2.831 2.831 0 0 1 493.382 271.973 H 191.003 A 2.831 2.831 0 0 1 188.172 269.142 V 161.496 A 2.831 2.831 0 0 1 191.003 158.665 Z M 196.666 168.005 V 262.633 H 487.719 V 168.005 H 196.666 Z" style="stroke: rgb(0, 0, 0); fill: rgb(181, 165, 64);"/>
    <rect x="198.787" y="168.746" width="17.554" height="17.554" style="stroke: rgb(0, 0, 0); fill: rgb(47, 209, 182);"/>
    <rect x="217.799" y="168.746" width="17.554" height="17.554" style="stroke: rgb(0, 0, 0); fill: rgb(181, 165, 64);"/>
    <rect x="236.741" y="168.746" width="17.554" height="17.554" style="stroke: rgb(0, 0, 0); fill: rgb(181, 165, 64);"/>
    <rect x="255.698" y="168.746" width="17.554" height="17.554" style="stroke: rgb(0, 0, 0); fill: rgb(181, 165, 64);"/>
    <rect x="274.889" y="168.746" width="17.554" height="17.554" style="stroke: rgb(0, 0, 0); fill: rgb(181, 165, 64);"/>
    <rect x="293.901" y="168.746" width="17.554" height="17.554" style="stroke: rgb(0, 0, 0); fill: rgb(181, 165, 64);"/>
    <rect x="312.843" y="168.746" width="17.554" height="17.554" style="stroke: rgb(0, 0, 0); fill: rgb(181, 165, 64);"/>
    <rect x="331.8" y="168.746" width="17.554" height="17.554" style="stroke: rgb(0, 0, 0); fill: rgb(181, 165, 64);"/>
    <rect x="224.263" y="186.877" width="17.554" height="17.554" style="stroke: rgb(0, 0, 0); fill: rgb(181, 165, 64);"/>
    <rect x="243.275" y="186.877" width="17.554" height="17.554" style="stroke: rgb(0, 0, 0); fill: rgb(181, 165, 64);"/>
    <rect x="262.217" y="186.877" width="17.554" height="17.554" style="stroke: rgb(0, 0, 0); fill: rgb(181, 165, 64);"/>
    <rect x="281.174" y="186.877" width="17.554" height="17.554" style="stroke: rgb(0, 0, 0); fill: rgb(181, 165, 64);"/>
    <rect x="300.365" y="186.877" width="17.554" height="17.554" style="stroke: rgb(0, 0, 0); fill: rgb(181, 165, 64);"/>
    <rect x="319.377" y="186.877" width="17.554" height="17.554" style="stroke: rgb(0, 0, 0); fill: rgb(181, 165, 64);"/>
    <rect x="338.319" y="186.877" width="17.554" height="17.554" style="stroke: rgb(0, 0, 0); fill: rgb(181, 165, 64);"/>
    <rect x="357.276" y="186.877" width="17.554" height="17.554" style="stroke: rgb(0, 0, 0); fill: rgb(181, 165, 64);"/>
    <rect x="236.741" y="205.818" width="17.554" height="17.554" style="stroke: rgb(0, 0, 0); fill: rgb(181, 165, 64);"/>
    <rect x="255.698" y="205.818" width="17.554" height="17.554" style="stroke: rgb(0, 0, 0); fill: rgb(181, 165, 64);"/>
    <rect x="274.889" y="205.818" width="17.554" height="17.554" style="stroke: rgb(0, 0, 0); fill: rgb(181, 165, 64);"/>
    <rect x="293.901" y="205.818" width="17.554" height="17.554" style="stroke: rgb(0, 0, 0); fill: rgb(181, 165, 64);"/>
    <rect x="312.843" y="205.818" width="17.554" height="17.554" style="stroke: rgb(0, 0, 0); fill: rgb(181, 165, 64);"/>
    <rect x="331.8" y="205.818" width="17.554" height="17.554" style="stroke: rgb(0, 0, 0); fill: rgb(181, 165, 64);"/>
    <rect x="350.705" y="205.818" width="17.554" height="17.554" style="stroke: rgb(0, 0, 0); fill: rgb(181, 165, 64);"/>
    <rect x="369.896" y="205.818" width="17.554" height="17.554" style="stroke: rgb(0, 0, 0); fill: rgb(181, 165, 64);"/>
    <rect x="198.787" y="205.818" width="36.566" height="17.554" style="stroke: rgb(0, 0, 0); fill: rgb(181, 165, 64);"/>
    <rect x="198.787" y="186.877" width="23.997" height="17.554" style="stroke: rgb(0, 0, 0); fill: rgb(181, 165, 64);"/>
    <rect x="350.705" y="168.746" width="17.554" height="17.554" style="stroke: rgb(0, 0, 0); fill: rgb(181, 165, 64);"/>
    <rect x="369.896" y="168.746" width="17.554" height="17.554" style="stroke: rgb(0, 0, 0); fill: rgb(181, 165, 64);"/>
    <rect x="388.908" y="168.746" width="17.554" height="17.554" style="stroke: rgb(0, 0, 0); fill: rgb(181, 165, 64);"/>
    <rect x="407.85" y="168.746" width="17.554" height="17.554" style="stroke: rgb(0, 0, 0); fill: rgb(181, 165, 64);"/>
    <rect x="426.807" y="168.746" width="17.554" height="17.554" style="stroke: rgb(0, 0, 0); fill: rgb(181, 165, 64);"/>
    <rect x="376.103" y="186.877" width="17.554" height="17.554" style="stroke: rgb(0, 0, 0); fill: rgb(181, 165, 64);"/>
    <rect x="395.294" y="186.877" width="17.554" height="17.554" style="stroke: rgb(0, 0, 0); fill: rgb(181, 165, 64);"/>
    <rect x="414.306" y="186.877" width="17.554" height="17.554" style="stroke: rgb(0, 0, 0); fill: rgb(181, 165, 64);"/>
    <rect x="433.248" y="186.877" width="17.554" height="17.554" style="stroke: rgb(0, 0, 0); fill: rgb(181, 165, 64);"/>
    <rect x="445.703" y="168.746" width="40.18" height="17.554" style="stroke: rgb(0, 0, 0); fill: rgb(181, 165, 64);"/>
    <rect x="452.835" y="186.877" width="33.048" height="17.554" style="stroke: rgb(0, 0, 0); fill: rgb(181, 165, 64);"/>
    <rect x="388.908" y="205.818" width="17.554" height="17.554" style="stroke: rgb(0, 0, 0); fill: rgb(181, 165, 64);"/>
    <rect x="407.85" y="205.818" width="17.554" height="17.554" style="stroke: rgb(0, 0, 0); fill: rgb(181, 165, 64);"/>
    <rect x="426.807" y="205.818" width="17.554" height="17.554" style="stroke: rgb(0, 0, 0); fill: rgb(181, 165, 64);"/>
    <rect x="445.703" y="205.818" width="40.18" height="17.554" style="stroke: rgb(0, 0, 0); fill: rgb(181, 165, 64);"/>
    <rect x="248.103" y="224.818" width="17.554" height="17.554" style="stroke: rgb(0, 0, 0); fill: rgb(181, 165, 64);"/>
    <rect x="267.294" y="224.818" width="17.554" height="17.554" style="stroke: rgb(0, 0, 0); fill: rgb(181, 165, 64);"/>
    <rect x="286.306" y="224.818" width="17.554" height="17.554" style="stroke: rgb(0, 0, 0); fill: rgb(181, 165, 64);"/>
    <rect x="305.574" y="224.818" width="17.554" height="17.554" style="stroke: rgb(0, 0, 0); fill: rgb(181, 165, 64);"/>
    <rect x="324.531" y="224.818" width="17.554" height="17.554" style="stroke: rgb(0, 0, 0); fill: rgb(181, 165, 64);"/>
    <rect x="343.436" y="224.818" width="17.554" height="17.554" style="stroke: rgb(0, 0, 0); fill: rgb(181, 165, 64);"/>
    <rect x="362.627" y="224.818" width="17.554" height="17.554" style="stroke: rgb(0, 0, 0); fill: rgb(181, 165, 64);"/>
    <rect x="198.787" y="224.818" width="48" height="17.554" style="stroke: rgb(0, 0, 0); fill: rgb(181, 165, 64);"/>
    <rect x="381.639" y="224.818" width="17.554" height="17.554" style="stroke: rgb(0, 0, 0); fill: rgb(181, 165, 64);"/>
    <rect x="400.581" y="224.818" width="17.554" height="17.554" style="stroke: rgb(0, 0, 0); fill: rgb(181, 165, 64);"/>
    <rect x="438.883" y="224.818" width="47" height="17.554" style="stroke: rgb(0, 0, 0); fill: rgb(140, 105, 11);"/>
    <rect x="419.523" y="224.818" width="17.554" height="17.554" style="stroke: rgb(0, 0, 0); fill: rgb(181, 165, 64);"/>
    <rect x="229.233" y="243.818" width="17.554" height="17.554" style="stroke: rgb(0, 0, 0); fill: rgb(181, 165, 64);"/>
    <rect x="248.103" y="243.818" width="29.15" height="17.554" style="stroke: rgb(0, 0, 0); fill: rgb(181, 165, 64);"/>
    <rect x="279.181" y="243.818" width="120.012" height="17.554" style="stroke: rgb(0, 0, 0); fill: rgb(181, 165, 64);"/>
    <rect x="198.787" y="243.818" width="29.488" height="17.554" style="stroke: rgb(0, 0, 0); fill: rgb(181, 165, 64);"/>
    <rect x="400.581" y="243.818" width="29.821" height="17.554" style="stroke: rgb(0, 0, 0); fill: rgb(181, 165, 64);"/>
    <rect x="450.802" y="243.818" width="35.081" height="17.554" style="stroke: rgb(0, 0, 0); fill: rgb(181, 165, 64);"/>
    <rect x="431.86" y="243.818" width="17.554" height="17.554" style="stroke: rgb(0, 0, 0); fill: rgb(181, 165, 64);"/>
  </g>
  <g transform="matrix(1, 0, 0, 0.992748, -160.936035, 83.477898)" style="">
    <rect x="194.967" y="158.665" width="296.716" height="106.056" style="stroke: rgb(0, 0, 0); fill: rgb(62, 17, 17);"/>
    <path d="M 191.003 158.665 H 493.382 A 2.831 2.831 0 0 1 496.213 161.496 V 269.142 A 2.831 2.831 0 0 1 493.382 271.973 H 191.003 A 2.831 2.831 0 0 1 188.172 269.142 V 161.496 A 2.831 2.831 0 0 1 191.003 158.665 Z M 196.666 168.005 V 262.633 H 487.719 V 168.005 H 196.666 Z" style="stroke: rgb(0, 0, 0); fill: rgb(191, 107, 107);"/>
    <rect x="198.787" y="168.746" width="17.554" height="17.554" style="stroke: rgb(0, 0, 0); fill: rgb(234, 121, 0);"/>
    <rect x="217.799" y="168.746" width="17.554" height="17.554" style="stroke: rgb(0, 0, 0); fill: rgb(191, 107, 107);"/>
    <rect x="236.741" y="168.746" width="17.554" height="17.554" style="stroke: rgb(0, 0, 0); fill: rgb(191, 107, 107);"/>
    <rect x="255.698" y="168.746" width="17.554" height="17.554" style="stroke: rgb(0, 0, 0); fill: rgb(191, 107, 107);"/>
    <rect x="274.889" y="168.746" width="17.554" height="17.554" style="stroke: rgb(0, 0, 0); fill: rgb(191, 107, 107);"/>
    <rect x="293.901" y="168.746" width="17.554" height="17.554" style="stroke: rgb(0, 0, 0); fill: rgb(191, 107, 107);"/>
    <rect x="312.843" y="168.746" width="17.554" height="17.554" style="stroke: rgb(0, 0, 0); fill: rgb(191, 107, 107);"/>
    <rect x="331.8" y="168.746" width="17.554" height="17.554" style="stroke: rgb(0, 0, 0); fill: rgb(191, 107, 107);"/>
    <rect x="224.263" y="186.877" width="17.554" height="17.554" style="stroke: rgb(0, 0, 0); fill: rgb(191, 107, 107);"/>
    <rect x="243.275" y="186.877" width="17.554" height="17.554" style="stroke: rgb(0, 0, 0); fill: rgb(191, 107, 107);"/>
    <rect x="262.217" y="186.877" width="17.554" height="17.554" style="stroke: rgb(0, 0, 0); fill: rgb(191, 107, 107);"/>
    <rect x="281.174" y="186.877" width="17.554" height="17.554" style="stroke: rgb(0, 0, 0); fill: rgb(191, 107, 107);"/>
    <rect x="300.365" y="186.877" width="17.554" height="17.554" style="stroke: rgb(0, 0, 0); fill: rgb(191, 107, 107);"/>
    <rect x="319.377" y="186.877" width="17.554" height="17.554" style="stroke: rgb(0, 0, 0); fill: rgb(191, 107, 107);"/>
    <rect x="338.319" y="186.877" width="17.554" height="17.554" style="stroke: rgb(0, 0, 0); fill: rgb(191, 107, 107);"/>
    <rect x="357.276" y="186.877" width="17.554" height="17.554" style="stroke: rgb(0, 0, 0); fill: rgb(191, 107, 107);"/>
    <rect x="236.741" y="205.818" width="17.554" height="17.554" style="stroke: rgb(0, 0, 0); fill: rgb(191, 107, 107);"/>
    <rect x="255.698" y="205.818" width="17.554" height="17.554" style="stroke: rgb(0, 0, 0); fill: rgb(191, 107, 107);"/>
    <rect x="274.889" y="205.818" width="17.554" height="17.554" style="stroke: rgb(0, 0, 0); fill: rgb(191, 107, 107);"/>
    <rect x="293.901" y="205.818" width="17.554" height="17.554" style="stroke: rgb(0, 0, 0); fill: rgb(191, 107, 107);"/>
    <rect x="312.843" y="205.818" width="17.554" height="17.554" style="stroke: rgb(0, 0, 0); fill: rgb(191, 107, 107);"/>
    <rect x="331.8" y="205.818" width="17.554" height="17.554" style="stroke: rgb(0, 0, 0); fill: rgb(191, 107, 107);"/>
    <rect x="350.705" y="205.818" width="17.554" height="17.554" style="stroke: rgb(0, 0, 0); fill: rgb(191, 107, 107);"/>
    <rect x="369.896" y="205.818" width="17.554" height="17.554" style="stroke: rgb(0, 0, 0); fill: rgb(191, 107, 107);"/>
    <rect x="198.787" y="205.818" width="36.566" height="17.554" style="stroke: rgb(0, 0, 0); fill: rgb(191, 107, 107);"/>
    <rect x="198.787" y="186.877" width="23.997" height="17.554" style="stroke: rgb(0, 0, 0); fill: rgb(191, 107, 107);"/>
    <rect x="350.705" y="168.746" width="17.554" height="17.554" style="stroke: rgb(0, 0, 0); fill: rgb(191, 107, 107);"/>
    <rect x="369.896" y="168.746" width="17.554" height="17.554" style="stroke: rgb(0, 0, 0); fill: rgb(191, 107, 107);"/>
    <rect x="388.908" y="168.746" width="17.554" height="17.554" style="stroke: rgb(0, 0, 0); fill: rgb(191, 107, 107);"/>
    <rect x="407.85" y="168.746" width="17.554" height="17.554" style="stroke: rgb(0, 0, 0); fill: rgb(191, 107, 107);"/>
    <rect x="426.807" y="168.746" width="17.554" height="17.554" style="stroke: rgb(0, 0, 0); fill: rgb(191, 107, 107);"/>
    <rect x="376.103" y="186.877" width="17.554" height="17.554" style="stroke: rgb(0, 0, 0); fill: rgb(191, 107, 107);"/>
    <rect x="395.294" y="186.877" width="17.554" height="17.554" style="stroke: rgb(0, 0, 0); fill: rgb(191, 107, 107);"/>
    <rect x="414.306" y="186.877" width="17.554" height="17.554" style="stroke: rgb(0, 0, 0); fill: rgb(191, 107, 107);"/>
    <rect x="433.248" y="186.877" width="17.554" height="17.554" style="stroke: rgb(0, 0, 0); fill: rgb(191, 107, 107);"/>
    <rect x="445.703" y="168.746" width="40.18" height="17.554" style="stroke: rgb(0, 0, 0); fill: rgb(191, 107, 107);"/>
    <rect x="452.835" y="186.877" width="33.048" height="17.554" style="stroke: rgb(0, 0, 0); fill: rgb(191, 107, 107);"/>
    <rect x="388.908" y="205.818" width="17.554" height="17.554" style="stroke: rgb(0, 0, 0); fill: rgb(191, 107, 107);"/>
    <rect x="407.85" y="205.818" width="17.554" height="17.554" style="stroke: rgb(0, 0, 0); fill: rgb(191, 107, 107);"/>
    <rect x="426.807" y="205.818" width="17.554" height="17.554" style="stroke: rgb(0, 0, 0); fill: rgb(191, 107, 107);"/>
    <rect x="445.703" y="205.818" width="40.18" height="17.554" style="stroke: rgb(0, 0, 0); fill: rgb(191, 107, 107);"/>
    <rect x="248.103" y="224.818" width="17.554" height="17.554" style="stroke: rgb(0, 0, 0); fill: rgb(191, 107, 107);"/>
    <rect x="267.294" y="224.818" width="17.554" height="17.554" style="stroke: rgb(0, 0, 0); fill: rgb(191, 107, 107);"/>
    <rect x="286.306" y="224.818" width="17.554" height="17.554" style="stroke: rgb(0, 0, 0); fill: rgb(191, 107, 107);"/>
    <rect x="305.574" y="224.818" width="17.554" height="17.554" style="stroke: rgb(0, 0, 0); fill: rgb(191, 107, 107);"/>
    <rect x="324.531" y="224.818" width="17.554" height="17.554" style="stroke: rgb(0, 0, 0); fill: rgb(191, 107, 107);"/>
    <rect x="343.436" y="224.818" width="17.554" height="17.554" style="stroke: rgb(0, 0, 0); fill: rgb(191, 107, 107);"/>
    <rect x="362.627" y="224.818" width="17.554" height="17.554" style="stroke: rgb(0, 0, 0); fill: rgb(191, 107, 107);"/>
    <rect x="198.787" y="224.818" width="48" height="17.554" style="stroke: rgb(0, 0, 0); fill: rgb(100, 41, 41);"/>
    <rect x="381.639" y="224.818" width="17.554" height="17.554" style="stroke: rgb(0, 0, 0); fill: rgb(191, 107, 107);"/>
    <rect x="400.581" y="224.818" width="17.554" height="17.554" style="stroke: rgb(0, 0, 0); fill: rgb(191, 107, 107);"/>
    <rect x="438.883" y="224.818" width="47" height="17.554" style="stroke: rgb(0, 0, 0); fill: rgb(100, 41, 41);"/>
    <rect x="419.523" y="224.818" width="17.554" height="17.554" style="stroke: rgb(0, 0, 0); fill: rgb(191, 107, 107);"/>
    <rect x="229.233" y="243.818" width="17.554" height="17.554" style="stroke: rgb(0, 0, 0); fill: rgb(191, 107, 107);"/>
    <rect x="248.103" y="243.818" width="29.15" height="17.554" style="stroke: rgb(0, 0, 0); fill: rgb(191, 107, 107);"/>
    <rect x="279.181" y="243.818" width="120.012" height="17.554" style="stroke: rgb(0, 0, 0); fill: rgb(234, 203, 203);"/>
    <rect x="198.787" y="243.818" width="29.488" height="17.554" style="stroke: rgb(0, 0, 0); fill: rgb(191, 107, 107);"/>
    <rect x="400.581" y="243.818" width="29.821" height="17.554" style="stroke: rgb(0, 0, 0); fill: rgb(191, 107, 107);"/>
    <rect x="450.802" y="243.818" width="35.081" height="17.554" style="stroke: rgb(0, 0, 0); fill: rgb(191, 107, 107);"/>
    <rect x="431.86" y="243.818" width="17.554" height="17.554" style="stroke: rgb(0, 0, 0); fill: rgb(191, 107, 107);"/>
  </g>
</svg>