<svg width="77" height="78" viewBox="0 0 77 78" fill="none" xmlns="http://www.w3.org/2000/svg">
<path fill-rule="evenodd" clip-rule="evenodd" d="M36.289 1.22116L31.6889 1.92984V3.84321L30.844 4.01556L30.44 4.01556V4.95324L30.4202 4.9891L30.44 4.99952V8.19982L15.0367 13.0572L15.1772 13.483L9.83432 25.315L6.90986 26.5546L1.26211 31.9029L0.902405 31.9295L2.20043 48.6751L9.20789 53.924V62.8973L10.6138 65.5915L10.9684 65.7669L12.0049 63.7646V56.0191L24.3719 65.2826V74.4109L25.2117 76.8251L26.1324 77.2805L26.3158 76.9263L26.3902 76.758L26.507 76.5569L27.1688 75.2783V67.3777L29.6324 69.2311L58.6341 58.8292V65.7109L60.1612 68.1855L62.611 68.1576L64.1283 65.6988V56.8587L75.7775 52.6805V38.2853L73.4134 31.1039L70.7297 28.533L65.055 17.851L45.4747 6.70401V2.58345L42.0499 1.22116L38.6124 1.92984L36.289 1.22116ZM31.7522 16.0035L31.7522 5.69084L33.2501 6.47995V17.5296H34.5623V6.56058L36.6847 6.03953V16.9192H37.9969V6.24049L39.8533 7.14139L39.8049 18.4432L41.1171 18.4486L41.1653 7.21062L43.0944 6.70401L43.0342 17.7904L44.3463 17.7734L44.1875 5.2816L42.62 4.43651L44.5445 3.94262V14.7826H45.4747V13.3794L51.8811 17.2402L36.3668 21.6521L24.7518 14.6234L30.44 12.9125V16.0035H31.7522ZM2.3598 33.7519L3.46323 47.987L29.1152 67.2016V52.3388L2.3598 33.7519ZM10.6926 63.1737V55.0362L10.5201 54.907V62.6778L10.6926 63.1737ZM25.6841 66.2655V74.1914L25.8566 74.6874V66.3948L25.6841 66.2655ZM44.5237 2.81192L42.0499 1.92984L38.6124 2.7023L36.289 1.79744L33.1393 2.35716L35.5793 3.57552L31.841 4.42591L33.9433 5.2816L37.4287 4.51246L40.5282 6.01658L43.0944 5.36815L40.3241 3.88784L44.5237 2.81192ZM33.0011 3.33253V3.57552L33.3519 3.50397L33.0011 3.33253ZM59.9464 58.3586V65.3422L60.8903 66.8719L61.8716 66.8607L62.8161 65.3301V57.3293L59.9464 58.3586ZM30.44 11.5489V9.56907L17.2989 13.7131L37.3122 25.512L37.3682 25.5119L63.0309 18.1834L45.4747 8.17113V11.7949L54.2934 17.2426L53.733 18.0711L36.1754 23.0641L22.7138 14.9179L22.4132 13.9632L30.44 11.5489ZM16.1362 14.5449L9.44501 29.246L8.34169 28.6205L7.13926 27.9177L2.65487 32.3648L29.5332 51.0371L31.7158 44.5899L27.7902 41.9132L36.091 26.3093L34.4277 25.3287L26.3107 40.4534L10.7622 30.5295L10.8322 30.4246L10.779 30.397L18.5963 15.9953L16.1362 14.5449ZM33.2975 24.6623L20.0904 16.8761V28.9345L28.2648 34.1656L33.2975 24.6623ZM18.7782 18.4076L12.4543 30.058L25.9002 38.6306L27.6509 35.3248L18.7782 29.6327V18.4076ZM30.4274 52.714V67.5585L74.4653 51.7637V39.168L30.4274 52.714ZM74.2945 37.8543L72.7512 32.3453L62.2211 35.7953L62.1619 35.6226L62.0484 35.6553L57.65 21.078L38.9808 26.4094L43.5054 41.8548L33 44.8867L30.8574 51.2156L74.2945 37.8543ZM71.7263 31.3069L69.8786 29.5039L62.2487 31.7786L62.9718 34.1751L71.7263 31.3069ZM69.1538 28.3603L64.2794 19.1848L58.9114 20.7178L61.8716 30.5285L69.1538 28.3603ZM36.889 27.5999L30.0026 40.5451L36.8965 38.5161L36.889 27.5999ZM30.0713 41.8861L32.6338 43.6333L40.8766 41.2996L37.6109 39.667L30.0713 41.8861ZM41.6632 40.232L38.2018 28.4158L38.2087 38.505L41.6632 40.232ZM9.04462 27.0638L8.59313 27.2535L8.88256 27.4227L9.04462 27.0638Z" fill="#C4C4C4"/>
<path fill-rule="evenodd" clip-rule="evenodd" d="M41.9489 0.73146C42.0446 0.711738 42.1439 0.720466 42.2347 0.756566L45.6595 2.11885C45.8498 2.19455 45.9747 2.37864 45.9747 2.58345V6.41331L65.3024 17.4165C65.3847 17.4634 65.4521 17.5327 65.4965 17.6164L71.1336 28.2275L73.7593 30.7428C73.8184 30.7994 73.8627 30.8697 73.8883 30.9475L76.2524 38.129C76.269 38.1794 76.2775 38.2322 76.2775 38.2853V52.6805C76.2775 52.8916 76.145 53.0799 75.9463 53.1512L64.6283 57.2105V65.6988C64.6283 65.7915 64.6025 65.8824 64.5538 65.9613L63.0365 68.4202C62.9465 68.566 62.7881 68.6556 62.6167 68.6576L60.1669 68.6855C59.9915 68.6875 59.8278 68.5974 59.7357 68.4481L58.2086 65.9734C58.1599 65.8945 58.1341 65.8036 58.1341 65.7109V59.5398L29.8012 69.7018C29.6428 69.7586 29.4663 69.7319 29.3318 69.6307L27.6688 68.3796V75.2783C27.6688 75.3583 27.6497 75.4371 27.6129 75.5081L26.951 76.7867C26.9473 76.7939 26.9434 76.8009 26.9394 76.8079L26.8364 76.9854L26.773 77.1286C26.7689 77.1379 26.7645 77.1471 26.7598 77.1561L26.5764 77.5104C26.4511 77.7525 26.155 77.8496 25.9107 77.7287L24.99 77.2733C24.8725 77.2152 24.7826 77.1132 24.7395 76.9894L23.8996 74.5752C23.8812 74.5224 23.8719 74.4668 23.8719 74.4109V65.5328L12.5049 57.0184V63.7646C12.5049 63.8446 12.4857 63.9235 12.4489 63.9945L11.4124 65.9967C11.2871 66.2388 10.991 66.3359 10.7467 66.2151L10.3921 66.0396C10.2971 65.9926 10.2195 65.9167 10.1705 65.8228L8.76461 63.1286C8.72735 63.0572 8.70789 62.9778 8.70789 62.8973V54.1742L1.90068 49.0753C1.78548 48.989 1.71305 48.8572 1.70193 48.7137L0.403901 31.9682C0.39363 31.8356 0.436537 31.7045 0.523145 31.6037C0.609752 31.5029 0.732932 31.4407 0.865475 31.4309L1.04761 31.4174L6.56606 26.1916C6.60941 26.1505 6.65976 26.1176 6.71472 26.0943L9.45911 24.931L14.6413 13.4547L14.5619 13.2139C14.52 13.0869 14.5307 12.9484 14.5917 12.8293C14.6526 12.7103 14.7588 12.6206 14.8863 12.5804L29.94 7.83322V5.12832C29.9134 5.03669 29.9138 4.94013 29.94 4.84987V4.01556C29.94 3.88295 29.9926 3.75577 30.0864 3.662C30.1802 3.56823 30.3073 3.51555 30.44 3.51556L30.7935 3.51556L31.1889 3.43491V1.92984C31.1889 1.68309 31.3689 1.47324 31.6128 1.43567L36.2129 0.726991C36.2872 0.715551 36.363 0.720993 36.4349 0.742914L38.6363 1.41439L41.9489 0.73146ZM30.9394 4.97636C30.9398 4.98405 30.94 4.99177 30.94 4.99952V8.19982C30.94 8.41803 30.7984 8.61104 30.5903 8.67667L15.667 13.3827C15.688 13.4853 15.6764 13.5924 15.6329 13.6888L10.29 25.5208C10.2383 25.6354 10.1452 25.7263 10.0295 25.7753L7.18811 26.9798L1.60591 32.2659C1.55718 32.3121 1.50004 32.3476 1.43812 32.3709L2.68144 48.4107L9.50765 53.5239C9.63369 53.6183 9.70789 53.7665 9.70789 53.924V62.7746L10.8356 64.9358L11.5049 63.6429V56.0191C11.5049 55.8298 11.6118 55.6567 11.7811 55.572C11.9505 55.4873 12.1531 55.5054 12.3046 55.6189L24.6716 64.8824C24.7977 64.9768 24.8719 65.1251 24.8719 65.2826V74.3264L25.6168 76.4677L25.9082 76.6118L25.933 76.5557C25.9404 76.539 25.9486 76.5228 25.9578 76.507L26.0685 76.3163L26.6688 75.1565V67.3777C26.6688 67.1882 26.776 67.015 26.9456 66.9303C27.1152 66.8457 27.318 66.8642 27.4694 66.9781L29.7175 68.6694L58.4653 58.3586C58.6185 58.3037 58.7888 58.3267 58.9219 58.4203C59.055 58.514 59.1341 58.6665 59.1341 58.8292V65.569L60.4382 67.6823L62.3301 67.6608L63.6283 65.5569V56.8587C63.6283 56.6476 63.7609 56.4593 63.9595 56.388L75.2775 52.3287V38.3655L72.9775 31.3787L70.3838 28.894C70.3454 28.8572 70.3131 28.8145 70.2881 28.7675L64.6815 18.2137L45.2273 7.13853C45.1505 7.09476 45.0881 7.03235 45.0445 6.95881V7.91633C45.0873 7.84403 45.1484 7.78245 45.2236 7.73879C45.3776 7.6493 45.5677 7.64854 45.7224 7.7368L63.2786 17.7491C63.4534 17.8487 63.5514 18.0435 63.5273 18.2433C63.5032 18.4431 63.3617 18.6089 63.1682 18.6642L37.5055 25.9927C37.461 26.0054 37.4149 26.0119 37.3686 26.0119L37.3125 26.012C37.2231 26.012 37.1353 25.9881 37.0583 25.9427L17.045 14.1438C16.8749 14.0436 16.7797 13.8526 16.8021 13.6564C16.8245 13.4603 16.9602 13.2956 17.1485 13.2363L30.2896 9.09222C30.4415 9.04432 30.6071 9.07166 30.7356 9.16584C30.8641 9.26003 30.94 9.40979 30.94 9.56907V11.5489C30.94 11.7696 30.7953 11.9642 30.584 12.0277L23.0422 14.2961L23.1341 14.5879L36.248 22.5236L53.421 17.6401L53.5873 17.3942L45.2119 12.2203C45.142 12.1771 45.0851 12.1182 45.0445 12.0497V13.1246C45.0883 13.0506 45.1513 12.9879 45.2288 12.9441C45.3858 12.8554 45.5784 12.8581 45.7328 12.9512L52.1392 16.812C52.3098 16.9148 52.4031 17.109 52.3767 17.3064C52.3504 17.5038 52.2094 17.6667 52.0179 17.7212L36.5035 22.133C36.37 22.171 36.2267 22.1518 36.1079 22.0799L24.4929 15.0512C24.3238 14.9489 24.2309 14.7566 24.2557 14.5606C24.2806 14.3645 24.4185 14.2015 24.6078 14.1446L30.2959 12.4337C30.4474 12.3882 30.6114 12.4169 30.7383 12.5113C30.8652 12.6056 30.94 12.7544 30.94 12.9125V15.5035H31.2522L31.2522 5.69084C31.2522 5.51566 31.3439 5.35326 31.4939 5.26275C31.6438 5.17224 31.8303 5.16682 31.9852 5.24847L33.4831 6.03759C33.6473 6.12408 33.7501 6.29438 33.7501 6.47995V17.0296H34.0623V6.56058C34.0623 6.33036 34.2195 6.12989 34.4431 6.075L36.5655 5.55395C36.7146 5.51733 36.8724 5.5513 36.9932 5.64608C37.1141 5.74086 37.1847 5.88593 37.1847 6.03953V16.4192H37.4969V6.24049C37.4969 6.06825 37.5856 5.90814 37.7315 5.81673C37.8775 5.72531 38.0603 5.71546 38.2152 5.79066L40.0716 6.69156C40.2446 6.77552 40.3542 6.95124 40.3533 7.14354L40.307 17.9453L40.6193 17.9466L40.6653 7.20848C40.6663 6.98205 40.8193 6.78453 41.0383 6.72702L42.9674 6.22041C43.1178 6.18091 43.278 6.21363 43.4009 6.30892C43.5237 6.40422 43.5953 6.55124 43.5944 6.70673L43.537 17.2838L43.84 17.2799L43.6913 5.58211L43.5716 5.51759C43.5204 5.68133 43.3874 5.80985 43.2169 5.85292L40.6506 6.50134C40.5365 6.53019 40.4158 6.51782 40.3099 6.46641L37.3668 5.03816L34.0511 5.76986C33.952 5.79171 33.8487 5.78294 33.7548 5.74471L31.6525 4.88902C31.4625 4.8117 31.3403 4.62699 31.3409 4.42449L30.944 4.50547L30.94 4.50627V4.95324C30.94 4.96096 30.9398 4.96867 30.9394 4.97636ZM33.4999 4.56131L33.9876 4.7598L37.321 4.02421C37.4309 3.99996 37.5458 4.01349 37.647 4.06263L40.5824 5.48715L41.7188 5.20001L40.0885 4.32883C39.9066 4.23164 39.8031 4.03274 39.8277 3.828C39.8524 3.62325 40.0003 3.45467 40.2001 3.40348L42.8151 2.73352L42.0183 2.44941L38.722 3.19013C38.625 3.21194 38.5236 3.20431 38.431 3.16821L36.2383 2.31428L34.7148 2.58501L35.8027 3.12818C35.9917 3.22255 36.101 3.4255 36.0758 3.63523C36.0505 3.84496 35.8962 4.01621 35.6903 4.06306L33.4999 4.56131ZM44.9747 3.02788C44.9122 3.15838 44.7943 3.25874 44.6478 3.29628L41.6941 4.053L42.1413 4.29195C42.1912 4.1265 42.3244 3.99617 42.4957 3.9522L44.4202 3.45831C44.5699 3.4199 44.7289 3.45285 44.851 3.54756C44.9013 3.58661 44.9431 3.63436 44.9747 3.68782V3.02788ZM43.9825 4.60305L44.0445 4.63648V4.58714L43.9825 4.60305ZM44.8147 15.2826H45.4747C45.7509 15.2826 45.9747 15.0588 45.9747 14.7826V14.2645L50.637 17.0742L36.4394 21.1116L25.9732 14.7781L29.94 13.585V16.0035C29.94 16.2797 30.1638 16.5035 30.44 16.5035H31.7522C32.0283 16.5035 32.2522 16.2797 32.2522 16.0035L32.2522 6.51939L32.7501 6.78168V17.5296C32.7501 17.8058 32.9739 18.0296 33.2501 18.0296H34.5623C34.8385 18.0296 35.0623 17.8058 35.0623 17.5296V6.95268L36.1847 6.67713V16.9192C36.1847 17.1953 36.4085 17.4192 36.6847 17.4192H37.9969C38.2731 17.4192 38.4969 17.1953 38.4969 16.9192V7.0389L39.352 7.45386L39.3049 18.4411C39.3043 18.5737 39.3565 18.7011 39.4499 18.7953C39.5432 18.8895 39.6702 18.9427 39.8028 18.9432L41.1151 18.9486C41.3912 18.9497 41.6159 18.7268 41.6171 18.4507L41.6636 7.5967L42.5909 7.3532L42.5342 17.7877C42.5335 17.9219 42.5867 18.0508 42.682 18.1453C42.7773 18.2398 42.9065 18.2921 43.0407 18.2904L44.3528 18.2733C44.6289 18.2698 44.8498 18.0431 44.8463 17.767L44.8147 15.2826ZM32.644 2.2886L32.1889 2.35871V3.83399L32.5346 3.75535C32.5127 3.69864 32.5011 3.63776 32.5011 3.57552V3.33253C32.5011 3.16005 32.59 2.99974 32.7364 2.9084C32.809 2.86304 32.8907 2.83787 32.9736 2.83329L32.9159 2.8045C32.7239 2.70862 32.6146 2.50097 32.644 2.2886ZM33.7711 3.23153C33.8146 3.29842 33.8419 3.37542 33.8496 3.45621L34.1049 3.39816L33.7711 3.23153ZM45.9747 9.03188V11.5161L54.5561 16.8173C54.672 16.8888 54.7537 17.0046 54.7822 17.1377C54.8108 17.2709 54.7838 17.4099 54.7075 17.5227L54.1472 18.3512C54.0813 18.4488 53.983 18.5199 53.8698 18.5521L36.3121 23.545C36.1786 23.583 36.0353 23.5637 35.9165 23.4918L22.4549 15.3457C22.3509 15.2828 22.2733 15.1841 22.2368 15.0681L21.9363 14.1133C21.8962 13.9858 21.9088 13.8474 21.9713 13.7293C22.0339 13.6111 22.1412 13.5229 22.2692 13.4844L29.94 11.1772V10.251L18.5197 13.8524L37.3995 24.983L61.7509 18.029L45.9747 9.03188ZM15.9858 14.0681C16.121 14.0254 16.268 14.0422 16.3901 14.1142L18.8502 15.5646C19.0822 15.7013 19.1642 15.9972 19.0357 16.2338L11.3829 30.3325L26.1251 39.7418L33.9872 25.0923C34.0515 24.9724 34.162 24.8839 34.293 24.8472C34.4241 24.8105 34.5644 24.8289 34.6817 24.898L36.3449 25.8785C36.5754 26.0145 36.6581 26.3078 36.5324 26.5441L28.4421 41.7525L31.9975 44.1768C32.1829 44.3032 32.2614 44.5376 32.1894 44.7502L30.0068 51.1974C29.9564 51.3462 29.839 51.4627 29.6898 51.5119C29.5406 51.5611 29.3769 51.5374 29.2479 51.4477L2.3696 32.7755C2.24766 32.6908 2.16967 32.5562 2.15676 32.4083C2.14386 32.2604 2.19736 32.1144 2.3028 32.0098L6.78718 27.5627C6.94802 27.4032 7.19599 27.3717 7.39155 27.486L8.59122 28.1872L9.21629 28.5416L15.6811 14.3378C15.7399 14.2088 15.8506 14.1107 15.9858 14.0681ZM10.279 30.4009C10.2784 30.317 10.2988 30.2335 10.3396 30.1585L17.9266 16.1809L16.361 15.2579L9.90009 29.4532C9.84197 29.5809 9.73287 29.6783 9.59942 29.7216C9.46597 29.7649 9.32045 29.7502 9.1984 29.681L8.08937 29.0522L7.21859 28.5432L3.43345 32.2969L29.2727 50.2473L31.1205 44.7891L27.5086 42.3264C27.2979 42.1827 27.229 41.9035 27.3488 41.6784L35.4248 26.4969L34.6222 26.0238L26.7512 40.6898C26.6854 40.8125 26.5715 40.9021 26.4368 40.9372C26.3022 40.9723 26.159 40.9497 26.0417 40.8749L10.4932 30.951C10.3799 30.8787 10.3005 30.7639 10.2729 30.6324C10.2566 30.5551 10.2591 30.4758 10.279 30.4009ZM19.8424 16.442C19.9982 16.353 20.1898 16.3543 20.3443 16.4454L33.5514 24.2316C33.7816 24.3674 33.8644 24.6602 33.7393 24.8963L28.7066 34.3996C28.6412 34.5231 28.5271 34.6136 28.392 34.6491C28.2568 34.6847 28.113 34.6621 27.9953 34.5867L19.8209 29.3556C19.6773 29.2637 19.5904 29.105 19.5904 28.9345V16.8761C19.5904 16.6967 19.6866 16.531 19.8424 16.442ZM20.5904 17.7513V28.6608L28.077 33.4518L32.632 24.8505L20.5904 17.7513ZM18.9012 17.923C19.1229 17.9793 19.2782 18.1789 19.2782 18.4076V29.3594L27.9209 34.904C28.1397 35.0443 28.2144 35.329 28.0928 35.5588L26.3421 38.8646C26.2768 38.988 26.1628 39.0784 26.0279 39.114C25.8929 39.1497 25.7492 39.1272 25.6314 39.0522L12.1855 30.4796C11.9642 30.3385 11.8896 30.0502 12.0149 29.8195L18.3387 18.1691C18.4479 17.9681 18.6795 17.8667 18.9012 17.923ZM13.1161 29.8869L25.712 37.9176L26.9938 35.4973L18.5082 30.0536C18.3648 29.9616 18.2782 29.803 18.2782 29.6327V20.3769L13.1161 29.8869ZM64.1421 18.704C64.369 18.6393 64.6103 18.7419 64.721 18.9502L69.5953 28.1257C69.6657 28.2581 69.6729 28.4151 69.615 28.5534C69.5571 28.6917 69.4401 28.7967 69.2964 28.8395L62.0142 31.0077C61.7503 31.0863 61.4724 30.9366 61.3929 30.6729L58.4327 20.8622C58.3941 20.734 58.4084 20.5957 58.4726 20.4781C58.5367 20.3606 58.6454 20.2737 58.7741 20.237L64.1421 18.704ZM59.5367 21.0592L62.2063 29.9071L68.4256 28.0554L64.0277 19.7767L59.5367 21.0592ZM57.5127 20.5972C57.7755 20.5222 58.0498 20.6719 58.1287 20.9335L62.4332 35.1997L72.5956 31.8702C72.7252 31.8277 72.8665 31.84 72.9868 31.9043C73.1071 31.9685 73.1959 32.0791 73.2327 32.2104L74.776 37.7195C74.8492 37.9806 74.7008 38.2525 74.4415 38.3322L31.0044 51.6935C30.8249 51.7486 30.6297 51.6987 30.4989 51.5641C30.368 51.4296 30.3236 51.233 30.3838 51.0552L32.5264 44.7264C32.5789 44.5713 32.704 44.4517 32.8613 44.4063L42.8844 41.5136L38.501 26.5499C38.4636 26.4221 38.4787 26.2846 38.543 26.168C38.6073 26.0513 38.7155 25.9652 38.8435 25.9286L57.5127 20.5972ZM39.6022 26.7519L43.9852 41.7142C44.0226 41.8418 44.0076 41.979 43.9436 42.0956C43.8796 42.2121 43.7718 42.2983 43.644 42.3352L33.3898 45.2946L31.6443 50.4504L73.6815 37.5198L72.4106 32.983L62.3768 36.2705C62.1716 36.3377 61.9538 36.2649 61.8275 36.1039C61.7075 36.0447 61.6114 35.9378 61.5697 35.7997L57.3137 21.694L39.6022 26.7519ZM9.40279 26.7149C9.54623 26.8622 9.58491 27.0822 9.50031 27.2696L9.33825 27.6285C9.27993 27.7576 9.16955 27.856 9.03455 27.899C8.89954 27.9421 8.7526 27.9259 8.63026 27.8544L8.34084 27.6852C8.17729 27.5896 8.0818 27.4098 8.09421 27.2208C8.10661 27.0318 8.22478 26.866 8.39942 26.7926L8.85091 26.6029C9.04042 26.5232 9.25936 26.5677 9.40279 26.7149ZM37.0098 27.1147C37.2325 27.1702 37.3888 27.3701 37.389 27.5996L37.3965 38.5157C37.3966 38.7376 37.2505 38.9331 37.0377 38.9957L30.1438 41.0248C29.9507 41.0816 29.7423 41.0171 29.6151 40.8611C29.4879 40.7051 29.4667 40.488 29.5612 40.3103L36.4476 27.3651C36.5553 27.1625 36.7872 27.0593 37.0098 27.1147ZM31.0028 39.7295L36.3962 38.1421L36.3904 29.6019L31.0028 39.7295ZM38.1306 27.9209C38.3769 27.8855 38.6117 28.0365 38.6816 28.2752L42.143 40.0914C42.1989 40.2823 42.1364 40.4882 41.9838 40.6157C41.8312 40.7432 41.6175 40.7682 41.4396 40.6792L37.9851 38.9522C37.8158 38.8676 37.7089 38.6946 37.7087 38.5053L37.7018 28.4161C37.7016 28.1674 37.8844 27.9563 38.1306 27.9209ZM38.7042 31.9094L38.7085 38.1959L40.8609 39.2719L38.7042 31.9094ZM69.7357 29.0247C69.9096 28.9729 70.0979 29.0193 70.2278 29.146L72.0755 30.949C72.2007 31.0711 72.2529 31.2497 72.2134 31.42C72.1738 31.5903 72.0482 31.7276 71.882 31.782L63.1275 34.6503C62.9996 34.6922 62.8601 34.6807 62.7407 34.6185C62.6213 34.5563 62.5321 34.4485 62.4932 34.3196L61.7701 31.9231C61.7317 31.7958 61.7455 31.6585 61.8085 31.5415C61.8715 31.4245 61.9785 31.3374 62.1059 31.2995L69.7357 29.0247ZM62.8723 32.1145L63.3026 33.5406L70.7867 31.0886L69.7398 30.067L62.8723 32.1145ZM2.11114 33.3181C2.27866 33.2221 2.48649 33.2311 2.64507 33.3413L29.4004 51.9282C29.5349 52.0216 29.6152 52.175 29.6152 52.3388V67.2016C29.6152 67.391 29.5082 67.564 29.3389 67.6488C29.1696 67.7335 28.9669 67.7153 28.8154 67.6018L3.16347 48.3872C3.04827 48.3009 2.97585 48.1692 2.96472 48.0257L1.86129 33.7906C1.84637 33.598 1.94363 33.4142 2.11114 33.3181ZM2.93972 34.7636L28.6152 52.6003V66.2024L3.94423 47.7226L2.93972 34.7636ZM74.7623 38.7659C74.8899 38.8601 74.9653 39.0094 74.9653 39.168V51.7637C74.9653 51.9748 74.8327 52.1631 74.6341 52.2343L30.5962 68.0291C30.443 68.0841 30.2727 68.061 30.1396 67.9674C30.0066 67.8737 29.9274 67.7212 29.9274 67.5585V52.714C29.9274 52.4945 30.0706 52.3007 30.2804 52.2361L74.3183 38.6901C74.4699 38.6435 74.6347 38.6716 74.7623 38.7659ZM30.9274 53.0833V66.848L73.9653 51.4118V39.845L30.9274 53.0833ZM37.4697 39.1873C37.5911 39.1516 37.7214 39.1632 37.8345 39.2197L41.1002 40.8524C41.2849 40.9447 41.3938 41.1409 41.3744 41.3465C41.3551 41.552 41.2115 41.7245 41.0128 41.7807L32.77 44.1144C32.6275 44.1548 32.4745 44.1299 32.3521 44.0464L29.7896 42.2992C29.63 42.1903 29.5473 41.9992 29.5774 41.8084C29.6074 41.6175 29.7447 41.461 29.9301 41.4064L37.4697 39.1873ZM31.2252 42.0677L32.7224 43.0886L39.4991 41.1699L37.5633 40.2022L31.2252 42.0677ZM10.2964 54.4598C10.4657 54.3751 10.6683 54.3933 10.8199 54.5068L10.9924 54.636C11.1185 54.7304 11.1926 54.8787 11.1926 55.0362V63.1737C11.1926 63.4177 11.0165 63.6261 10.776 63.6667C10.5354 63.7074 10.3006 63.5684 10.2204 63.338L10.0479 62.8421C10.0295 62.7892 10.0201 62.7337 10.0201 62.6778V54.907C10.0201 54.7176 10.1271 54.5445 10.2964 54.4598ZM63.1038 56.9204C63.2369 57.0141 63.3161 57.1666 63.3161 57.3293V65.3301C63.3161 65.4229 63.2903 65.5138 63.2416 65.5927L62.2971 67.1233C62.2071 67.2691 62.0487 67.3587 61.8773 67.3607L60.896 67.3719C60.7206 67.3739 60.5569 67.2838 60.4648 67.1345L59.5209 65.6048C59.4722 65.5259 59.4464 65.435 59.4464 65.3422V58.3586C59.4464 58.1475 59.5789 57.9592 59.7776 57.8879L62.6473 56.8587C62.8004 56.8037 62.9708 56.8268 63.1038 56.9204ZM60.4464 58.7104V65.2004L61.1673 66.3687L61.5906 66.3639L62.3161 65.1883V58.0398L60.4464 58.7104ZM25.4603 65.8184C25.6297 65.7337 25.8323 65.7519 25.9838 65.8654L26.1564 65.9946C26.2824 66.089 26.3566 66.2373 26.3566 66.3948V74.6874C26.3566 74.9314 26.1805 75.1397 25.9399 75.1804C25.6993 75.221 25.4645 75.0821 25.3844 74.8516L25.2118 74.3557C25.1935 74.3029 25.1841 74.2474 25.1841 74.1914V66.2655C25.1841 66.0762 25.291 65.9031 25.4603 65.8184Z" fill="#C4C4C4"/>
</svg>
